solid inlet2
facet normal 0.000043 0.000000 1.000000
outer loop
vertex 5.471858 0.985276 -9.999994
vertex 5.426259 0.980785 -9.999994
vertex 5.389567 0.969655 -9.999994
endloop
endfacet
facet normal -1.000000 0.000000 0.000000
outer loop
vertex 5.389567 0.969655 -9.999994
vertex 5.301012 0.942792 -9.999994
vertex 5.238666 0.923880 -9.999994
endloop
endfacet
facet normal 0.000000 0.000000 0.000000
outer loop
vertex 5.238666 0.923880 -9.999994
vertex 5.152943 0.878060 -9.999994
vertex 5.065779 0.831470 -9.999994
endloop
endfacet
facet normal 0.000000 0.000000 -1.000000
outer loop
vertex 4.985231 0.765366 -9.999994
vertex 4.983449 0.763904 -9.999994
vertex 4.979611 0.760753 -9.999994
endloop
endfacet
facet normal -0.000030 0.000000 1.000000
outer loop
vertex 5.238666 0.923880 -9.999994
vertex 5.065779 0.831470 -9.999994
vertex 4.985231 0.765366 -9.999994
endloop
endfacet
facet normal 0.000000 0.000000 1.000000
outer loop
vertex 5.471858 0.985276 -9.999994
vertex 5.389567 0.969655 -9.999994
vertex 5.238666 0.923880 -9.999994
endloop
endfacet
facet normal 0.000005 0.000000 1.000000
outer loop
vertex 5.816439 0.980785 -9.999994
vertex 5.621349 1.000000 -9.999994
vertex 5.471858 0.985276 -9.999994
endloop
endfacet
facet normal -0.970143 0.000000 0.242536
outer loop
vertex 6.004032 0.923880 -9.999994
vertex 5.941686 0.942792 -9.999994
vertex 5.816439 0.980785 -9.999994
endloop
endfacet
facet normal -0.000031 0.000000 1.000000
outer loop
vertex 6.257466 0.765366 -9.999994
vertex 6.176919 0.831470 -9.999994
vertex 6.009519 0.920947 -9.999994
endloop
endfacet
facet normal 0.000501 0.000000 1.000000
outer loop
vertex 6.009519 0.920947 -9.999994
vertex 6.004032 0.923880 -9.999994
vertex 5.816439 0.980785 -9.999994
endloop
endfacet
facet normal 0.000005 0.000000 1.000000
outer loop
vertex 5.816439 0.980785 -9.999994
vertex 5.471858 0.985276 -9.999994
vertex 5.238666 0.923880 -9.999994
endloop
endfacet
facet normal 0.000188 0.000000 1.000000
outer loop
vertex 5.238666 0.923880 -9.999994
vertex 4.985231 0.765366 -9.999994
vertex 4.979611 0.760753 -9.999994
endloop
endfacet
facet normal 0.000071 0.000000 1.000000
outer loop
vertex 4.979611 0.760753 -9.999994
vertex 4.914242 0.707107 -9.999994
vertex 4.849630 0.628376 -9.999994
endloop
endfacet
facet normal 0.000000 0.000000 1.000000
outer loop
vertex 4.849630 0.628376 -9.999994
vertex 4.810394 0.580568 -9.999994
vertex 4.789879 0.555570 -9.999994
endloop
endfacet
facet normal -0.952338 0.000000 0.305046
outer loop
vertex 4.748506 0.478165 -9.999994
vertex 4.701476 0.390180 -9.999994
vertex 4.697469 0.382683 -9.999994
endloop
endfacet
facet normal -0.000074 0.000000 1.000000
outer loop
vertex 4.849630 0.628376 -9.999994
vertex 4.789879 0.555570 -9.999994
vertex 4.748506 0.478165 -9.999994
endloop
endfacet
facet normal -0.000018 0.000000 1.000000
outer loop
vertex 5.238666 0.923880 -9.999994
vertex 4.979611 0.760753 -9.999994
vertex 4.849630 0.628376 -9.999994
endloop
endfacet
facet normal -0.000003 0.000000 1.000000
outer loop
vertex 6.009519 0.920947 -9.999994
vertex 5.816439 0.980785 -9.999994
vertex 5.238666 0.923880 -9.999994
endloop
endfacet
facet normal 0.000070 0.000000 1.000000
outer loop
vertex 6.328455 0.707107 -9.999994
vertex 6.257466 0.765366 -9.999994
vertex 6.009519 0.920947 -9.999994
endloop
endfacet
facet normal 0.982872 0.000000 0.184289
outer loop
vertex 6.452818 0.555570 -9.999994
vertex 6.432303 0.580568 -9.999994
vertex 6.370378 0.656024 -9.999994
endloop
endfacet
facet normal -0.000065 0.000000 1.000000
outer loop
vertex 6.370378 0.656024 -9.999994
vertex 6.328455 0.707107 -9.999994
vertex 6.009519 0.920947 -9.999994
endloop
endfacet
facet normal 0.000000 0.000000 1.000000
outer loop
vertex 6.009519 0.920947 -9.999994
vertex 5.238666 0.923880 -9.999994
vertex 4.849630 0.628376 -9.999994
endloop
endfacet
facet normal 0.000000 0.000000 1.000000
outer loop
vertex 4.849630 0.628376 -9.999994
vertex 4.748506 0.478165 -9.999994
vertex 4.697469 0.382683 -9.999994
endloop
endfacet
facet normal 0.000000 0.000000 1.000000
outer loop
vertex 4.697469 0.382683 -9.999994
vertex 4.676633 0.313997 -9.999994
vertex 4.640850 0.196034 -9.999994
endloop
endfacet
facet normal 0.000000 0.000000 1.000000
outer loop
vertex 4.640850 0.196034 -9.999994
vertex 4.640563 0.195090 -9.999994
vertex 4.634721 0.135766 -9.999994
endloop
endfacet
facet normal 0.000078 0.000000 1.000000
outer loop
vertex 4.634721 0.135766 -9.999994
vertex 4.621349 0.000000 -9.999994
vertex 4.626989 -0.057267 -9.999994
endloop
endfacet
facet normal -0.001819 0.000000 0.999998
outer loop
vertex 4.626989 -0.057267 -9.999994
vertex 4.640563 -0.195090 -9.999994
vertex 4.640850 -0.196034 -9.999994
endloop
endfacet
facet normal -0.000148 0.000000 1.000000
outer loop
vertex 4.662337 -0.266869 -9.999994
vertex 4.697469 -0.382683 -9.999994
vertex 4.701478 -0.390182 -9.999994
endloop
endfacet
facet normal 0.000060 0.000000 1.000000
outer loop
vertex 4.626989 -0.057267 -9.999994
vertex 4.640850 -0.196034 -9.999994
vertex 4.662337 -0.266869 -9.999994
endloop
endfacet
facet normal 0.000000 0.000000 1.000000
outer loop
vertex 4.640850 0.196034 -9.999994
vertex 4.634721 0.135766 -9.999994
vertex 4.626989 -0.057267 -9.999994
endloop
endfacet
facet normal -0.000033 0.000000 1.000000
outer loop
vertex 4.849630 0.628376 -9.999994
vertex 4.697469 0.382683 -9.999994
vertex 4.640850 0.196034 -9.999994
endloop
endfacet
facet normal 0.000001 0.000000 1.000000
outer loop
vertex 6.370378 0.656024 -9.999994
vertex 6.009519 0.920947 -9.999994
vertex 4.849630 0.628376 -9.999994
endloop
endfacet
facet normal 0.000000 0.000000 1.000000
outer loop
vertex 6.521256 0.427533 -9.999994
vertex 6.452818 0.555570 -9.999994
vertex 6.370378 0.656024 -9.999994
endloop
endfacet
facet normal 0.998053 0.000000 0.062378
outer loop
vertex 6.545228 0.382683 -9.999994
vertex 6.541222 0.390180 -9.999994
vertex 6.521256 0.427533 -9.999994
endloop
endfacet
facet normal 0.993203 0.000000 0.116391
outer loop
vertex 6.602134 0.195090 -9.999994
vertex 6.601848 0.196034 -9.999994
vertex 6.596116 0.214931 -9.999994
endloop
endfacet
facet normal 0.000034 0.000000 1.000000
outer loop
vertex 6.596116 0.214931 -9.999994
vertex 6.545228 0.382683 -9.999994
vertex 6.521256 0.427533 -9.999994
endloop
endfacet
facet normal 0.000000 0.000000 1.000000
outer loop
vertex 6.521256 0.427533 -9.999994
vertex 6.370378 0.656024 -9.999994
vertex 4.849630 0.628376 -9.999994
endloop
endfacet
facet normal 0.000020 0.000000 1.000000
outer loop
vertex 4.849630 0.628376 -9.999994
vertex 4.640850 0.196034 -9.999994
vertex 4.626989 -0.057267 -9.999994
endloop
endfacet
facet normal 0.000062 0.000000 1.000000
outer loop
vertex 4.626989 -0.057267 -9.999994
vertex 4.662337 -0.266869 -9.999994
vertex 4.701478 -0.390182 -9.999994
endloop
endfacet
facet normal 0.988012 0.000000 0.154377
outer loop
vertex 4.701478 -0.390182 -9.999994
vertex 4.758623 -0.497093 -9.999994
vertex 4.789879 -0.555570 -9.999994
endloop
endfacet
facet normal -0.000044 0.000000 1.000000
outer loop
vertex 4.810396 -0.580570 -9.999994
vertex 4.914242 -0.707107 -9.999994
vertex 4.979611 -0.760754 -9.999994
endloop
endfacet
facet normal -0.000151 0.000000 1.000000
outer loop
vertex 4.701478 -0.390182 -9.999994
vertex 4.789879 -0.555570 -9.999994
vertex 4.810396 -0.580570 -9.999994
endloop
endfacet
facet normal -0.000011 0.000000 1.000000
outer loop
vertex 4.849630 0.628376 -9.999994
vertex 4.626989 -0.057267 -9.999994
vertex 4.701478 -0.390182 -9.999994
endloop
endfacet
facet normal 0.000000 0.000000 1.000000
outer loop
vertex 6.596116 0.214931 -9.999994
vertex 6.521256 0.427533 -9.999994
vertex 4.849630 0.628376 -9.999994
endloop
endfacet
facet normal 0.000081 0.000000 1.000000
outer loop
vertex 6.620061 0.013077 -9.999994
vertex 6.602134 0.195090 -9.999994
vertex 6.596116 0.214931 -9.999994
endloop
endfacet
facet normal 0.000000 0.000000 1.000000
outer loop
vertex 6.603722 -0.178966 -9.999994
vertex 6.621349 0.000000 -9.999994
vertex 6.620061 0.013077 -9.999994
endloop
endfacet
facet normal 0.009530 0.000000 0.999955
outer loop
vertex 6.601847 -0.196036 -9.999994
vertex 6.602134 -0.195090 -9.999994
vertex 6.603722 -0.178966 -9.999994
endloop
endfacet
facet normal 0.000000 0.000000 1.000000
outer loop
vertex 6.545228 -0.382683 -9.999994
vertex 6.551969 -0.360465 -9.999994
vertex 6.601847 -0.196036 -9.999994
endloop
endfacet
facet normal 0.000000 0.000000 1.000000
outer loop
vertex 6.452818 -0.555570 -9.999994
vertex 6.466597 -0.529793 -9.999994
vertex 6.541220 -0.390182 -9.999994
endloop
endfacet
facet normal 0.000000 0.000000 1.000000
outer loop
vertex 6.541220 -0.390182 -9.999994
vertex 6.545228 -0.382683 -9.999994
vertex 6.601847 -0.196036 -9.999994
endloop
endfacet
facet normal 0.002937 0.000000 0.999996
outer loop
vertex 6.601847 -0.196036 -9.999994
vertex 6.603722 -0.178966 -9.999994
vertex 6.620061 0.013077 -9.999994
endloop
endfacet
facet normal 0.000000 0.000000 1.000000
outer loop
vertex 6.620061 0.013077 -9.999994
vertex 6.596116 0.214931 -9.999994
vertex 4.849630 0.628376 -9.999994
endloop
endfacet
facet normal 0.000019 0.000000 1.000000
outer loop
vertex 4.849630 0.628376 -9.999994
vertex 4.701478 -0.390182 -9.999994
vertex 4.810396 -0.580570 -9.999994
endloop
endfacet
facet normal 0.000225 0.000000 1.000000
outer loop
vertex 4.810396 -0.580570 -9.999994
vertex 4.979611 -0.760754 -9.999994
vertex 4.985234 -0.765368 -9.999994
endloop
endfacet
facet normal 0.000000 0.000000 1.000000
outer loop
vertex 4.985234 -0.765368 -9.999994
vertex 4.990120 -0.769378 -9.999994
vertex 5.065779 -0.831470 -9.999994
endloop
endfacet
facet normal 0.000036 0.000000 1.000000
outer loop
vertex 5.065779 -0.831470 -9.999994
vertex 5.238666 -0.923880 -9.999994
vertex 5.301018 -0.942794 -9.999994
endloop
endfacet
facet normal -0.000006 0.000000 1.000000
outer loop
vertex 5.301018 -0.942794 -9.999994
vertex 5.426259 -0.980785 -9.999994
vertex 5.471859 -0.985276 -9.999994
endloop
endfacet
facet normal 0.000040 0.000000 1.000000
outer loop
vertex 5.471859 -0.985276 -9.999994
vertex 5.621349 -1.000000 -9.999994
vertex 5.634014 -0.998753 -9.999994
endloop
endfacet
facet normal -0.000013 0.000000 1.000000
outer loop
vertex 5.634014 -0.998753 -9.999994
vertex 5.816439 -0.980785 -9.999994
vertex 5.941679 -0.942794 -9.999994
endloop
endfacet
facet normal -0.000103 0.000000 1.000000
outer loop
vertex 5.975430 -0.932556 -9.999994
vertex 6.004032 -0.923880 -9.999994
vertex 6.009520 -0.920946 -9.999994
endloop
endfacet
facet normal 0.000000 0.000000 1.000000
outer loop
vertex 5.634014 -0.998753 -9.999994
vertex 5.941679 -0.942794 -9.999994
vertex 5.975430 -0.932556 -9.999994
endloop
endfacet
facet normal 0.000006 0.000000 1.000000
outer loop
vertex 5.301018 -0.942794 -9.999994
vertex 5.471859 -0.985276 -9.999994
vertex 5.634014 -0.998753 -9.999994
endloop
endfacet
facet normal -0.000036 0.000000 1.000000
outer loop
vertex 4.985234 -0.765368 -9.999994
vertex 5.065779 -0.831470 -9.999994
vertex 5.301018 -0.942794 -9.999994
endloop
endfacet
facet normal -0.000003 0.000000 1.000000
outer loop
vertex 4.849630 0.628376 -9.999994
vertex 4.810396 -0.580570 -9.999994
vertex 4.985234 -0.765368 -9.999994
endloop
endfacet
facet normal 0.000003 0.000000 1.000000
outer loop
vertex 6.601847 -0.196036 -9.999994
vertex 6.620061 0.013077 -9.999994
vertex 4.849630 0.628376 -9.999994
endloop
endfacet
facet normal 0.000000 0.000000 1.000000
outer loop
vertex 6.452818 -0.555570 -9.999994
vertex 6.541220 -0.390182 -9.999994
vertex 6.601847 -0.196036 -9.999994
endloop
endfacet
facet normal 0.000000 0.000000 0.000000
outer loop
vertex 6.328455 -0.707107 -9.999994
vertex 6.346946 -0.684576 -9.999994
vertex 6.432302 -0.580570 -9.999994
endloop
endfacet
facet normal -0.000131 0.000000 1.000000
outer loop
vertex 6.432302 -0.580570 -9.999994
vertex 6.452818 -0.555570 -9.999994
vertex 6.601847 -0.196036 -9.999994
endloop
endfacet
facet normal -0.000001 0.000000 1.000000
outer loop
vertex 6.601847 -0.196036 -9.999994
vertex 4.849630 0.628376 -9.999994
vertex 4.985234 -0.765368 -9.999994
endloop
endfacet
facet normal 0.000003 0.000000 1.000000
outer loop
vertex 4.985234 -0.765368 -9.999994
vertex 5.301018 -0.942794 -9.999994
vertex 5.634014 -0.998753 -9.999994
endloop
endfacet
facet normal -0.000009 0.000000 1.000000
outer loop
vertex 5.634014 -0.998753 -9.999994
vertex 5.975430 -0.932556 -9.999994
vertex 6.009520 -0.920946 -9.999994
endloop
endfacet
facet normal 0.000000 0.000000 1.000000
outer loop
vertex 6.009520 -0.920946 -9.999994
vertex 6.176919 -0.831470 -9.999994
vertex 6.189210 -0.821383 -9.999994
endloop
endfacet
facet normal 0.000000 0.000000 1.000000
outer loop
vertex 6.257464 -0.765368 -9.999994
vertex 6.328455 -0.707107 -9.999994
vertex 6.432302 -0.580570 -9.999994
endloop
endfacet
facet normal -0.000036 0.000000 1.000000
outer loop
vertex 6.009520 -0.920946 -9.999994
vertex 6.189210 -0.821383 -9.999994
vertex 6.257464 -0.765368 -9.999994
endloop
endfacet
facet normal 0.000001 0.000000 1.000000
outer loop
vertex 4.985234 -0.765368 -9.999994
vertex 5.634014 -0.998753 -9.999994
vertex 6.009520 -0.920946 -9.999994
endloop
endfacet
facet normal 0.000000 0.000000 1.000000
outer loop
vertex 6.432302 -0.580570 -9.999994
vertex 6.601847 -0.196036 -9.999994
vertex 4.985234 -0.765368 -9.999994
endloop
endfacet
facet normal 0.000000 0.000000 1.000000
outer loop
vertex 6.009520 -0.920946 -9.999994
vertex 6.257464 -0.765368 -9.999994
vertex 6.432302 -0.580570 -9.999994
endloop
endfacet
facet normal 0.000000 0.000000 1.000000
outer loop
vertex 4.985234 -0.765368 -9.999994
vertex 6.009520 -0.920946 -9.999994
vertex 6.432302 -0.580570 -9.999994
endloop
endfacet
endsolid inlet2
