solid inlet1
facet normal 1.000000 0.000000 0.000000
outer loop
vertex -6.000000 2.000000 -6.000000
vertex -6.000000 1.990370 -5.803966
vertex -6.000000 1.961570 -5.609820
endloop
endfacet
facet normal 1.000000 0.000000 0.000000
outer loop
vertex -6.000000 1.961570 -5.609820
vertex -6.000000 1.913880 -5.419430
vertex -6.000000 1.847760 -5.234632
endloop
endfacet
facet normal 1.000000 0.000000 0.000000
outer loop
vertex -6.000000 1.847760 -5.234632
vertex -6.000000 1.763842 -5.057206
vertex -6.000000 1.662940 -4.888860
endloop
endfacet
facet normal 1.000000 0.000000 0.000000
outer loop
vertex -6.000000 1.662940 -4.888860
vertex -6.000000 1.546020 -4.731214
vertex -6.000000 1.414214 -4.585786
endloop
endfacet
facet normal 1.000000 0.000000 0.000000
outer loop
vertex -6.000000 1.414214 -4.585786
vertex -6.000000 1.268786 -4.453980
vertex -6.000000 1.111140 -4.337060
endloop
endfacet
facet normal 1.000000 0.000000 0.000000
outer loop
vertex -6.000000 1.111140 -4.337060
vertex -6.000000 0.942794 -4.236158
vertex -6.000000 0.765366 -4.152240
endloop
endfacet
facet normal 1.000000 0.000000 0.000000
outer loop
vertex -6.000000 0.765366 -4.152240
vertex -6.000000 0.580570 -4.086120
vertex -6.000000 0.390180 -4.038430
endloop
endfacet
facet normal 1.000000 0.000000 0.000000
outer loop
vertex -6.000000 0.390180 -4.038430
vertex -6.000000 0.196034 -4.009630
vertex -6.000000 0.000000 -4.000000
endloop
endfacet
facet normal 1.000000 0.000000 0.000000
outer loop
vertex -6.000000 0.000000 -4.000000
vertex -6.000000 -0.196034 -4.009630
vertex -6.000000 -0.390180 -4.038430
endloop
endfacet
facet normal 1.000000 0.000000 0.000000
outer loop
vertex -6.000000 -0.390180 -4.038430
vertex -6.000000 -0.580570 -4.086120
vertex -6.000000 -0.765366 -4.152240
endloop
endfacet
facet normal 1.000000 0.000000 0.000000
outer loop
vertex -6.000000 -0.765366 -4.152240
vertex -6.000000 -0.942794 -4.236158
vertex -6.000000 -1.111140 -4.337060
endloop
endfacet
facet normal 1.000000 0.000000 0.000000
outer loop
vertex -6.000000 -1.111140 -4.337060
vertex -6.000000 -1.268786 -4.453980
vertex -6.000000 -1.414214 -4.585786
endloop
endfacet
facet normal 1.000000 0.000000 0.000000
outer loop
vertex -6.000000 -1.414214 -4.585786
vertex -6.000000 -1.546020 -4.731214
vertex -6.000000 -1.662940 -4.888860
endloop
endfacet
facet normal 1.000000 0.000000 0.000000
outer loop
vertex -6.000000 -1.662940 -4.888860
vertex -6.000000 -1.763842 -5.057206
vertex -6.000000 -1.847760 -5.234632
endloop
endfacet
facet normal 1.000000 0.000000 0.000000
outer loop
vertex -6.000000 -1.847760 -5.234632
vertex -6.000000 -1.913880 -5.419430
vertex -6.000000 -1.961570 -5.609820
endloop
endfacet
facet normal 1.000000 0.000000 0.000000
outer loop
vertex -6.000000 -1.961570 -5.609820
vertex -6.000000 -1.990370 -5.803966
vertex -6.000000 -2.000000 -6.000000
endloop
endfacet
facet normal 1.000000 0.000000 0.000000
outer loop
vertex -6.000000 -2.000000 -6.000000
vertex -6.000000 -1.990370 -6.196034
vertex -6.000000 -1.961570 -6.390180
endloop
endfacet
facet normal 1.000000 0.000000 0.000000
outer loop
vertex -6.000000 -1.961570 -6.390180
vertex -6.000000 -1.913880 -6.580570
vertex -6.000000 -1.847760 -6.765368
endloop
endfacet
facet normal 1.000000 0.000000 0.000000
outer loop
vertex -6.000000 -1.847760 -6.765368
vertex -6.000000 -1.763842 -6.942794
vertex -6.000000 -1.662940 -7.111140
endloop
endfacet
facet normal 1.000000 0.000000 0.000000
outer loop
vertex -6.000000 -1.662940 -7.111140
vertex -6.000000 -1.546020 -7.268786
vertex -6.000000 -1.414214 -7.414214
endloop
endfacet
facet normal 1.000000 0.000000 0.000000
outer loop
vertex -6.000000 -1.414214 -7.414214
vertex -6.000000 -1.268786 -7.546020
vertex -6.000000 -1.111140 -7.662940
endloop
endfacet
facet normal 1.000000 0.000000 0.000000
outer loop
vertex -6.000000 -1.111140 -7.662940
vertex -6.000000 -0.942794 -7.763842
vertex -6.000000 -0.765366 -7.847760
endloop
endfacet
facet normal 1.000000 0.000000 0.000000
outer loop
vertex -6.000000 -0.765366 -7.847760
vertex -6.000000 -0.580570 -7.913880
vertex -6.000000 -0.390180 -7.961570
endloop
endfacet
facet normal 1.000000 0.000000 0.000000
outer loop
vertex -6.000000 -0.390180 -7.961570
vertex -6.000000 -0.196034 -7.990370
vertex -6.000000 0.000000 -8.000000
endloop
endfacet
facet normal 1.000000 0.000000 0.000000
outer loop
vertex -6.000000 0.000000 -8.000000
vertex -6.000000 0.196034 -7.990370
vertex -6.000000 0.390180 -7.961570
endloop
endfacet
facet normal 1.000000 0.000000 0.000000
outer loop
vertex -6.000000 0.390180 -7.961570
vertex -6.000000 0.580570 -7.913880
vertex -6.000000 0.765366 -7.847760
endloop
endfacet
facet normal 1.000000 0.000000 0.000000
outer loop
vertex -6.000000 0.765366 -7.847760
vertex -6.000000 0.942794 -7.763842
vertex -6.000000 1.111140 -7.662940
endloop
endfacet
facet normal 1.000000 0.000000 0.000000
outer loop
vertex -6.000000 1.111140 -7.662940
vertex -6.000000 1.268786 -7.546020
vertex -6.000000 1.414214 -7.414214
endloop
endfacet
facet normal 1.000000 0.000000 0.000000
outer loop
vertex -6.000000 1.414214 -7.414214
vertex -6.000000 1.546020 -7.268786
vertex -6.000000 1.662940 -7.111140
endloop
endfacet
facet normal 1.000000 0.000000 0.000000
outer loop
vertex -6.000000 1.662940 -7.111140
vertex -6.000000 1.763842 -6.942794
vertex -6.000000 1.847760 -6.765368
endloop
endfacet
facet normal 1.000000 0.000000 0.000000
outer loop
vertex -6.000000 1.847760 -6.765368
vertex -6.000000 1.913880 -6.580570
vertex -6.000000 1.961570 -6.390180
endloop
endfacet
facet normal 1.000000 0.000000 0.000000
outer loop
vertex -6.000000 1.961570 -6.390180
vertex -6.000000 1.990370 -6.196034
vertex -6.000000 2.000000 -6.000000
endloop
endfacet
facet normal 1.000000 0.000000 0.000000
outer loop
vertex -6.000000 2.000000 -6.000000
vertex -6.000000 1.961570 -5.609820
vertex -6.000000 1.847760 -5.234632
endloop
endfacet
facet normal 1.000000 0.000000 0.000000
outer loop
vertex -6.000000 1.847760 -5.234632
vertex -6.000000 1.662940 -4.888860
vertex -6.000000 1.414214 -4.585786
endloop
endfacet
facet normal 1.000000 0.000000 0.000000
outer loop
vertex -6.000000 1.414214 -4.585786
vertex -6.000000 1.111140 -4.337060
vertex -6.000000 0.765366 -4.152240
endloop
endfacet
facet normal 1.000000 0.000000 0.000000
outer loop
vertex -6.000000 0.765366 -4.152240
vertex -6.000000 0.390180 -4.038430
vertex -6.000000 0.000000 -4.000000
endloop
endfacet
facet normal 1.000000 0.000000 0.000000
outer loop
vertex -6.000000 0.000000 -4.000000
vertex -6.000000 -0.390180 -4.038430
vertex -6.000000 -0.765366 -4.152240
endloop
endfacet
facet normal 1.000000 0.000000 0.000000
outer loop
vertex -6.000000 -0.765366 -4.152240
vertex -6.000000 -1.111140 -4.337060
vertex -6.000000 -1.414214 -4.585786
endloop
endfacet
facet normal 1.000000 0.000000 0.000000
outer loop
vertex -6.000000 -1.414214 -4.585786
vertex -6.000000 -1.662940 -4.888860
vertex -6.000000 -1.847760 -5.234632
endloop
endfacet
facet normal 1.000000 0.000000 0.000000
outer loop
vertex -6.000000 -1.847760 -5.234632
vertex -6.000000 -1.961570 -5.609820
vertex -6.000000 -2.000000 -6.000000
endloop
endfacet
facet normal 1.000000 0.000000 0.000000
outer loop
vertex -6.000000 -2.000000 -6.000000
vertex -6.000000 -1.961570 -6.390180
vertex -6.000000 -1.847760 -6.765368
endloop
endfacet
facet normal 1.000000 0.000000 0.000000
outer loop
vertex -6.000000 -1.847760 -6.765368
vertex -6.000000 -1.662940 -7.111140
vertex -6.000000 -1.414214 -7.414214
endloop
endfacet
facet normal 1.000000 0.000000 0.000000
outer loop
vertex -6.000000 -1.414214 -7.414214
vertex -6.000000 -1.111140 -7.662940
vertex -6.000000 -0.765366 -7.847760
endloop
endfacet
facet normal 1.000000 0.000000 0.000000
outer loop
vertex -6.000000 -0.765366 -7.847760
vertex -6.000000 -0.390180 -7.961570
vertex -6.000000 0.000000 -8.000000
endloop
endfacet
facet normal 1.000000 0.000000 0.000000
outer loop
vertex -6.000000 0.000000 -8.000000
vertex -6.000000 0.390180 -7.961570
vertex -6.000000 0.765366 -7.847760
endloop
endfacet
facet normal 1.000000 0.000000 0.000000
outer loop
vertex -6.000000 0.765366 -7.847760
vertex -6.000000 1.111140 -7.662940
vertex -6.000000 1.414214 -7.414214
endloop
endfacet
facet normal 1.000000 0.000000 0.000000
outer loop
vertex -6.000000 1.414214 -7.414214
vertex -6.000000 1.662940 -7.111140
vertex -6.000000 1.847760 -6.765368
endloop
endfacet
facet normal 1.000000 0.000000 0.000000
outer loop
vertex -6.000000 1.847760 -6.765368
vertex -6.000000 1.961570 -6.390180
vertex -6.000000 2.000000 -6.000000
endloop
endfacet
facet normal 1.000000 0.000000 0.000000
outer loop
vertex -6.000000 2.000000 -6.000000
vertex -6.000000 1.847760 -5.234632
vertex -6.000000 1.414214 -4.585786
endloop
endfacet
facet normal 1.000000 0.000000 0.000000
outer loop
vertex -6.000000 1.414214 -4.585786
vertex -6.000000 0.765366 -4.152240
vertex -6.000000 0.000000 -4.000000
endloop
endfacet
facet normal 1.000000 0.000000 0.000000
outer loop
vertex -6.000000 0.000000 -4.000000
vertex -6.000000 -0.765366 -4.152240
vertex -6.000000 -1.414214 -4.585786
endloop
endfacet
facet normal 1.000000 0.000000 0.000000
outer loop
vertex -6.000000 -1.414214 -4.585786
vertex -6.000000 -1.847760 -5.234632
vertex -6.000000 -2.000000 -6.000000
endloop
endfacet
facet normal 1.000000 0.000000 0.000000
outer loop
vertex -6.000000 -2.000000 -6.000000
vertex -6.000000 -1.847760 -6.765368
vertex -6.000000 -1.414214 -7.414214
endloop
endfacet
facet normal 1.000000 0.000000 0.000000
outer loop
vertex -6.000000 -1.414214 -7.414214
vertex -6.000000 -0.765366 -7.847760
vertex -6.000000 0.000000 -8.000000
endloop
endfacet
facet normal 1.000000 0.000000 0.000000
outer loop
vertex -6.000000 0.000000 -8.000000
vertex -6.000000 0.765366 -7.847760
vertex -6.000000 1.414214 -7.414214
endloop
endfacet
facet normal 1.000000 0.000000 0.000000
outer loop
vertex -6.000000 1.414214 -7.414214
vertex -6.000000 1.847760 -6.765368
vertex -6.000000 2.000000 -6.000000
endloop
endfacet
facet normal 1.000000 0.000000 0.000000
outer loop
vertex -6.000000 2.000000 -6.000000
vertex -6.000000 1.414214 -4.585786
vertex -6.000000 0.000000 -4.000000
endloop
endfacet
facet normal 1.000000 0.000000 0.000000
outer loop
vertex -6.000000 0.000000 -4.000000
vertex -6.000000 -1.414214 -4.585786
vertex -6.000000 -2.000000 -6.000000
endloop
endfacet
facet normal 1.000000 0.000000 0.000000
outer loop
vertex -6.000000 -2.000000 -6.000000
vertex -6.000000 -1.414214 -7.414214
vertex -6.000000 0.000000 -8.000000
endloop
endfacet
facet normal 1.000000 0.000000 0.000000
outer loop
vertex -6.000000 0.000000 -8.000000
vertex -6.000000 1.414214 -7.414214
vertex -6.000000 2.000000 -6.000000
endloop
endfacet
facet normal 1.000000 0.000000 0.000000
outer loop
vertex -6.000000 2.000000 -6.000000
vertex -6.000000 0.000000 -4.000000
vertex -6.000000 -2.000000 -6.000000
endloop
endfacet
facet normal 1.000000 0.000000 0.000000
outer loop
vertex -6.000000 -2.000000 -6.000000
vertex -6.000000 0.000000 -8.000000
vertex -6.000000 2.000000 -6.000000
endloop
endfacet
endsolid inlet1
