solid outlet1
facet normal 0.000000 0.000000 -1.000000
outer loop
vertex 5.609820 1.961570 6.000000
vertex 5.803966 1.990368 6.000000
vertex 6.000000 2.000000 6.000000
endloop
endfacet
facet normal 0.000000 0.000000 -1.000000
outer loop
vertex 6.000000 2.000000 6.000000
vertex 6.196034 1.990368 6.000000
vertex 6.390182 1.961570 6.000000
endloop
endfacet
facet normal 0.000000 0.000000 -1.000000
outer loop
vertex 6.390182 1.961570 6.000000
vertex 6.580570 1.913880 6.000000
vertex 6.765368 1.847758 6.000000
endloop
endfacet
facet normal 0.000000 0.000000 -1.000000
outer loop
vertex 6.765368 1.847758 6.000000
vertex 6.942794 1.763842 6.000000
vertex 7.111140 1.662938 6.000000
endloop
endfacet
facet normal 0.000000 0.000000 -1.000000
outer loop
vertex 7.111140 1.662938 6.000000
vertex 7.268786 1.546020 6.000000
vertex 7.414214 1.414212 6.000000
endloop
endfacet
facet normal 0.000000 0.000000 -1.000000
outer loop
vertex 7.414214 1.414212 6.000000
vertex 7.546022 1.268786 6.000000
vertex 7.662940 1.111140 6.000000
endloop
endfacet
facet normal -0.000063 0.000000 -1.000000
outer loop
vertex 7.662940 1.111140 6.000000
vertex 7.763844 0.942792 6.000000
vertex 7.847760 0.765366 6.000000
endloop
endfacet
facet normal -0.000063 0.000000 -1.000000
outer loop
vertex 7.847760 0.765366 6.000000
vertex 7.913882 0.580568 6.000000
vertex 7.961572 0.390180 6.000000
endloop
endfacet
facet normal 0.000063 0.000000 -1.000000
outer loop
vertex 7.961572 0.390180 6.000000
vertex 7.990370 0.196034 6.000000
vertex 8.000000 -0.000002 6.000000
endloop
endfacet
facet normal 0.000000 0.000000 -1.000000
outer loop
vertex 8.000000 -0.000002 6.000000
vertex 7.990370 -0.196036 6.000000
vertex 7.961570 -0.390182 6.000000
endloop
endfacet
facet normal 0.000000 0.000000 -1.000000
outer loop
vertex 7.961570 -0.390182 6.000000
vertex 7.913880 -0.580570 6.000000
vertex 7.847760 -0.765368 6.000000
endloop
endfacet
facet normal 0.000000 0.000000 -1.000000
outer loop
vertex 7.847760 -0.765368 6.000000
vertex 7.763842 -0.942794 6.000000
vertex 7.662940 -1.111142 6.000000
endloop
endfacet
facet normal 0.000000 0.000000 -1.000000
outer loop
vertex 7.662940 -1.111142 6.000000
vertex 7.546020 -1.268788 6.000000
vertex 7.414214 -1.414214 6.000000
endloop
endfacet
facet normal 0.000000 0.000000 -1.000000
outer loop
vertex 7.414214 -1.414214 6.000000
vertex 7.268786 -1.546022 6.000000
vertex 7.111140 -1.662940 6.000000
endloop
endfacet
facet normal 0.000000 0.000000 -1.000000
outer loop
vertex 7.111140 -1.662940 6.000000
vertex 6.942794 -1.763844 6.000000
vertex 6.765368 -1.847760 6.000000
endloop
endfacet
facet normal 0.000000 0.000000 -1.000000
outer loop
vertex 6.765368 -1.847760 6.000000
vertex 6.580570 -1.913882 6.000000
vertex 6.390180 -1.961572 6.000000
endloop
endfacet
facet normal 0.000000 0.000000 -1.000000
outer loop
vertex 6.390180 -1.961572 6.000000
vertex 6.196034 -1.990370 6.000000
vertex 6.000000 -2.000000 6.000000
endloop
endfacet
facet normal 0.000000 0.000000 -1.000000
outer loop
vertex 6.000000 -2.000000 6.000000
vertex 5.803966 -1.990370 6.000000
vertex 5.609820 -1.961572 6.000000
endloop
endfacet
facet normal 0.000000 0.000000 -1.000000
outer loop
vertex 5.609820 -1.961572 6.000000
vertex 5.419430 -1.913882 6.000000
vertex 5.234632 -1.847760 6.000000
endloop
endfacet
facet normal 0.000000 0.000000 -1.000000
outer loop
vertex 5.234632 -1.847760 6.000000
vertex 5.057206 -1.763844 6.000000
vertex 4.888860 -1.662940 6.000000
endloop
endfacet
facet normal 0.000000 0.000000 -1.000000
outer loop
vertex 4.888860 -1.662940 6.000000
vertex 4.731214 -1.546022 6.000000
vertex 4.585786 -1.414214 6.000000
endloop
endfacet
facet normal 0.000000 0.000000 -1.000000
outer loop
vertex 4.585786 -1.414214 6.000000
vertex 4.453980 -1.268788 6.000000
vertex 4.337060 -1.111142 6.000000
endloop
endfacet
facet normal 0.000000 0.000000 -1.000000
outer loop
vertex 4.337060 -1.111142 6.000000
vertex 4.236158 -0.942794 6.000000
vertex 4.152240 -0.765368 6.000000
endloop
endfacet
facet normal 0.000000 0.000000 -1.000000
outer loop
vertex 4.152240 -0.765368 6.000000
vertex 4.086120 -0.580570 6.000000
vertex 4.038430 -0.390182 6.000000
endloop
endfacet
facet normal 0.000000 0.000000 -1.000000
outer loop
vertex 4.038430 -0.390182 6.000000
vertex 4.009630 -0.196034 6.000000
vertex 4.000000 0.000000 6.000000
endloop
endfacet
facet normal 0.000000 0.000000 -1.000000
outer loop
vertex 4.000000 0.000000 6.000000
vertex 4.009632 0.196034 6.000000
vertex 4.038430 0.390180 6.000000
endloop
endfacet
facet normal 0.000063 0.000000 -1.000000
outer loop
vertex 4.038430 0.390180 6.000000
vertex 4.086120 0.580568 6.000000
vertex 4.152242 0.765366 6.000000
endloop
endfacet
facet normal 0.000063 0.000000 -1.000000
outer loop
vertex 4.152242 0.765366 6.000000
vertex 4.236158 0.942792 6.000000
vertex 4.337062 1.111140 6.000000
endloop
endfacet
facet normal 0.000000 0.000000 -1.000000
outer loop
vertex 4.337062 1.111140 6.000000
vertex 4.453980 1.268786 6.000000
vertex 4.585786 1.414212 6.000000
endloop
endfacet
facet normal 0.000000 0.000000 -1.000000
outer loop
vertex 4.585786 1.414212 6.000000
vertex 4.731214 1.546020 6.000000
vertex 4.888860 1.662938 6.000000
endloop
endfacet
facet normal 0.000000 0.000000 -1.000000
outer loop
vertex 4.888860 1.662938 6.000000
vertex 5.057208 1.763842 6.000000
vertex 5.234634 1.847758 6.000000
endloop
endfacet
facet normal 0.000000 0.000000 -1.000000
outer loop
vertex 5.234634 1.847758 6.000000
vertex 5.419432 1.913880 6.000000
vertex 5.609820 1.961570 6.000000
endloop
endfacet
facet normal 0.000000 0.000000 -1.000000
outer loop
vertex 5.609820 1.961570 6.000000
vertex 6.000000 2.000000 6.000000
vertex 6.390182 1.961570 6.000000
endloop
endfacet
facet normal 0.000000 0.000000 -1.000000
outer loop
vertex 6.390182 1.961570 6.000000
vertex 6.765368 1.847758 6.000000
vertex 7.111140 1.662938 6.000000
endloop
endfacet
facet normal 0.000000 0.000000 -1.000000
outer loop
vertex 7.111140 1.662938 6.000000
vertex 7.414214 1.414212 6.000000
vertex 7.662940 1.111140 6.000000
endloop
endfacet
facet normal 0.000032 0.000000 -1.000000
outer loop
vertex 7.662940 1.111140 6.000000
vertex 7.847760 0.765366 6.000000
vertex 7.961572 0.390180 6.000000
endloop
endfacet
facet normal 0.000000 0.000000 -1.000000
outer loop
vertex 7.961572 0.390180 6.000000
vertex 8.000000 -0.000002 6.000000
vertex 7.961570 -0.390182 6.000000
endloop
endfacet
facet normal 0.000032 0.000000 -1.000000
outer loop
vertex 7.961570 -0.390182 6.000000
vertex 7.847760 -0.765368 6.000000
vertex 7.662940 -1.111142 6.000000
endloop
endfacet
facet normal 0.000000 0.000000 -1.000000
outer loop
vertex 7.662940 -1.111142 6.000000
vertex 7.414214 -1.414214 6.000000
vertex 7.111140 -1.662940 6.000000
endloop
endfacet
facet normal 0.000000 0.000000 -1.000000
outer loop
vertex 7.111140 -1.662940 6.000000
vertex 6.765368 -1.847760 6.000000
vertex 6.390180 -1.961572 6.000000
endloop
endfacet
facet normal 0.000000 0.000000 -1.000000
outer loop
vertex 6.390180 -1.961572 6.000000
vertex 6.000000 -2.000000 6.000000
vertex 5.609820 -1.961572 6.000000
endloop
endfacet
facet normal 0.000000 0.000000 -1.000000
outer loop
vertex 5.609820 -1.961572 6.000000
vertex 5.234632 -1.847760 6.000000
vertex 4.888860 -1.662940 6.000000
endloop
endfacet
facet normal 0.000000 0.000000 -1.000000
outer loop
vertex 4.888860 -1.662940 6.000000
vertex 4.585786 -1.414214 6.000000
vertex 4.337060 -1.111142 6.000000
endloop
endfacet
facet normal -0.000032 0.000000 -1.000000
outer loop
vertex 4.337060 -1.111142 6.000000
vertex 4.152240 -0.765368 6.000000
vertex 4.038430 -0.390182 6.000000
endloop
endfacet
facet normal 0.000000 0.000000 -1.000000
outer loop
vertex 4.038430 -0.390182 6.000000
vertex 4.000000 0.000000 6.000000
vertex 4.038430 0.390180 6.000000
endloop
endfacet
facet normal -0.000032 0.000000 -1.000000
outer loop
vertex 4.038430 0.390180 6.000000
vertex 4.152242 0.765366 6.000000
vertex 4.337062 1.111140 6.000000
endloop
endfacet
facet normal 0.000000 0.000000 -1.000000
outer loop
vertex 4.337062 1.111140 6.000000
vertex 4.585786 1.414212 6.000000
vertex 4.888860 1.662938 6.000000
endloop
endfacet
facet normal 0.000000 0.000000 -1.000000
outer loop
vertex 4.888860 1.662938 6.000000
vertex 5.234634 1.847758 6.000000
vertex 5.609820 1.961570 6.000000
endloop
endfacet
facet normal 0.000000 0.000000 -1.000000
outer loop
vertex 5.609820 1.961570 6.000000
vertex 6.390182 1.961570 6.000000
vertex 7.111140 1.662938 6.000000
endloop
endfacet
facet normal 0.000000 0.000000 -1.000000
outer loop
vertex 7.111140 1.662938 6.000000
vertex 7.662940 1.111140 6.000000
vertex 7.961572 0.390180 6.000000
endloop
endfacet
facet normal -0.000008 0.000000 -1.000000
outer loop
vertex 7.961572 0.390180 6.000000
vertex 7.961570 -0.390182 6.000000
vertex 7.662940 -1.111142 6.000000
endloop
endfacet
facet normal 0.000000 0.000000 -1.000000
outer loop
vertex 7.662940 -1.111142 6.000000
vertex 7.111140 -1.662940 6.000000
vertex 6.390180 -1.961572 6.000000
endloop
endfacet
facet normal 0.000000 0.000000 -1.000000
outer loop
vertex 6.390180 -1.961572 6.000000
vertex 5.609820 -1.961572 6.000000
vertex 4.888860 -1.662940 6.000000
endloop
endfacet
facet normal 0.000000 0.000000 -1.000000
outer loop
vertex 4.888860 -1.662940 6.000000
vertex 4.337060 -1.111142 6.000000
vertex 4.038430 -0.390182 6.000000
endloop
endfacet
facet normal 0.000008 0.000000 -1.000000
outer loop
vertex 4.038430 -0.390182 6.000000
vertex 4.038430 0.390180 6.000000
vertex 4.337062 1.111140 6.000000
endloop
endfacet
facet normal 0.000000 0.000000 -1.000000
outer loop
vertex 4.337062 1.111140 6.000000
vertex 4.888860 1.662938 6.000000
vertex 5.609820 1.961570 6.000000
endloop
endfacet
facet normal 0.000000 0.000000 -1.000000
outer loop
vertex 5.609820 1.961570 6.000000
vertex 7.111140 1.662938 6.000000
vertex 7.961572 0.390180 6.000000
endloop
endfacet
facet normal 0.000001 0.000000 -1.000000
outer loop
vertex 7.961572 0.390180 6.000000
vertex 7.662940 -1.111142 6.000000
vertex 6.390180 -1.961572 6.000000
endloop
endfacet
facet normal 0.000000 0.000000 -1.000000
outer loop
vertex 6.390180 -1.961572 6.000000
vertex 4.888860 -1.662940 6.000000
vertex 4.038430 -0.390182 6.000000
endloop
endfacet
facet normal -0.000001 0.000000 -1.000000
outer loop
vertex 4.038430 -0.390182 6.000000
vertex 4.337062 1.111140 6.000000
vertex 5.609820 1.961570 6.000000
endloop
endfacet
facet normal -0.000000 0.000000 -1.000000
outer loop
vertex 5.609820 1.961570 6.000000
vertex 7.961572 0.390180 6.000000
vertex 6.390180 -1.961572 6.000000
endloop
endfacet
facet normal 0.000000 0.000000 -1.000000
outer loop
vertex 6.390180 -1.961572 6.000000
vertex 4.038430 -0.390182 6.000000
vertex 5.609820 1.961570 6.000000
endloop
endfacet
endsolid outlet1
