solid wall2
facet normal 0.773012 -0.634392 0.000000
outer loop
vertex 4.914242 0.707107 -6.140027
vertex 4.849630 0.628376 -6.222978
vertex 4.849630 0.628376 -9.999994
endloop
endfacet
facet normal 0.773012 -0.634392 0.000000
outer loop
vertex 4.914242 0.707107 -6.140027
vertex 4.849630 0.628376 -9.999994
vertex 4.914242 0.707107 -9.999994
endloop
endfacet
facet normal 0.881919 0.471401 0.000000
outer loop
vertex 4.758623 -0.497093 -6.337746
vertex 4.789879 -0.555570 -6.296350
vertex 4.789879 -0.555570 -9.999994
endloop
endfacet
facet normal 0.881924 0.471392 0.000000
outer loop
vertex 4.758623 -0.497093 -6.337746
vertex 4.789879 -0.555570 -9.999994
vertex 4.758623 -0.497093 -9.999994
endloop
endfacet
facet normal 0.881920 0.471400 0.000000
outer loop
vertex 4.701478 -0.390182 -6.413428
vertex 4.758623 -0.497093 -6.337746
vertex 4.758623 -0.497093 -9.999994
endloop
endfacet
facet normal 0.881924 0.471391 0.000000
outer loop
vertex 4.701478 -0.390182 -6.413428
vertex 4.758623 -0.497093 -9.999994
vertex 4.701478 -0.390182 -9.999994
endloop
endfacet
facet normal 0.881920 -0.471400 0.000000
outer loop
vertex 4.748506 0.478165 -6.351144
vertex 4.701476 0.390180 -6.413429
vertex 4.701476 0.390180 -9.999994
endloop
endfacet
facet normal 0.881919 -0.471401 0.000000
outer loop
vertex 4.748506 0.478165 -6.351144
vertex 4.701476 0.390180 -9.999994
vertex 4.748506 0.478165 -9.999994
endloop
endfacet
facet normal -0.957145 -0.289609 0.000000
outer loop
vertex 6.602134 0.195090 -4.495401
vertex 6.601848 0.196034 -4.495710
vertex 6.601848 0.196034 -9.999994
endloop
endfacet
facet normal -0.957150 -0.289594 0.000000
outer loop
vertex 6.602134 0.195090 -4.495401
vertex 6.601848 0.196034 -9.999994
vertex 6.602134 0.195090 -9.999994
endloop
endfacet
facet normal 0.773007 -0.634398 0.000000
outer loop
vertex 4.849630 0.628376 -6.222978
vertex 4.810394 0.580568 -6.273348
vertex 4.810394 0.580568 -9.999994
endloop
endfacet
facet normal 0.773007 -0.634397 0.000000
outer loop
vertex 4.849630 0.628376 -6.222978
vertex 4.810394 0.580568 -9.999994
vertex 4.849630 0.628376 -9.999994
endloop
endfacet
facet normal 0.471398 0.881921 0.000000
outer loop
vertex 5.065779 -0.831470 -5.945210
vertex 5.238666 -0.923880 -5.729599
vertex 5.238666 -0.923880 -9.999994
endloop
endfacet
facet normal 0.471397 0.881921 0.000000
outer loop
vertex 5.065779 -0.831470 -5.945210
vertex 5.238666 -0.923880 -9.999994
vertex 5.065779 -0.831470 -9.999994
endloop
endfacet
facet normal 0.881962 -0.471321 0.000000
outer loop
vertex 4.701476 0.390180 -6.413429
vertex 4.697469 0.382683 -6.417784
vertex 4.697469 0.382683 -9.999994
endloop
endfacet
facet normal 0.881887 -0.471460 0.000000
outer loop
vertex 4.701476 0.390180 -6.413429
vertex 4.697469 0.382683 -9.999994
vertex 4.701476 0.390180 -9.999994
endloop
endfacet
facet normal -0.773019 0.634382 0.000000
outer loop
vertex 6.328455 -0.707107 -4.660178
vertex 6.346946 -0.684576 -4.648763
vertex 6.346946 -0.684576 -9.999994
endloop
endfacet
facet normal -0.773003 0.634402 0.000000
outer loop
vertex 6.328455 -0.707107 -4.660178
vertex 6.346946 -0.684576 -9.999994
vertex 6.328455 -0.707107 -9.999994
endloop
endfacet
facet normal 0.957265 -0.289213 0.000000
outer loop
vertex 4.640850 0.196034 -6.494205
vertex 4.640563 0.195090 -6.494475
vertex 4.640563 0.195090 -9.999994
endloop
endfacet
facet normal 0.956965 -0.290204 0.000000
outer loop
vertex 4.640850 0.196034 -6.494205
vertex 4.640563 0.195090 -9.999994
vertex 4.640850 0.196034 -9.999994
endloop
endfacet
facet normal -0.956929 0.290321 0.000000
outer loop
vertex 6.545228 -0.382683 -4.525630
vertex 6.551969 -0.360465 -4.522069
vertex 6.551969 -0.360465 -9.999994
endloop
endfacet
facet normal -0.956944 0.290274 0.000000
outer loop
vertex 6.545228 -0.382683 -4.525630
vertex 6.551969 -0.360465 -9.999994
vertex 6.545228 -0.382683 -9.999994
endloop
endfacet
facet normal 0.634396 0.773008 0.000000
outer loop
vertex 4.914242 -0.707107 -6.140027
vertex 4.979611 -0.760754 -6.067677
vertex 4.979611 -0.760754 -9.999994
endloop
endfacet
facet normal 0.634392 0.773012 0.000000
outer loop
vertex 4.914242 -0.707107 -6.140027
vertex 4.979611 -0.760754 -9.999994
vertex 4.914242 -0.707107 -9.999994
endloop
endfacet
facet normal -0.290280 -0.956942 0.000000
outer loop
vertex 6.004032 0.923880 -4.935875
vertex 5.941686 0.942792 -4.991360
vertex 5.941686 0.942792 -9.999994
endloop
endfacet
facet normal -0.290289 -0.956939 0.000000
outer loop
vertex 6.004032 0.923880 -4.935875
vertex 5.941686 0.942792 -9.999994
vertex 6.004032 0.923880 -9.999994
endloop
endfacet
facet normal 0.995185 0.098016 0.000000
outer loop
vertex 4.626989 -0.057267 -6.512962
vertex 4.640563 -0.195090 -6.494475
vertex 4.640563 -0.195090 -9.999994
endloop
endfacet
facet normal 0.995185 0.098014 0.000000
outer loop
vertex 4.626989 -0.057267 -6.512962
vertex 4.640563 -0.195090 -9.999994
vertex 4.626989 -0.057267 -9.999994
endloop
endfacet
facet normal -0.634385 -0.773017 0.000000
outer loop
vertex 6.328455 0.707107 -4.660176
vertex 6.257466 0.765366 -4.720943
vertex 6.257466 0.765366 -9.999994
endloop
endfacet
facet normal -0.634396 -0.773008 0.000000
outer loop
vertex 6.328455 0.707107 -4.660176
vertex 6.257466 0.765366 -9.999994
vertex 6.328455 0.707107 -9.999994
endloop
endfacet
facet normal -0.634401 0.773004 0.000000
outer loop
vertex 6.257464 -0.765368 -4.720946
vertex 6.328455 -0.707107 -4.660178
vertex 6.328455 -0.707107 -9.999994
endloop
endfacet
facet normal -0.634390 0.773014 0.000000
outer loop
vertex 6.257464 -0.765368 -4.720946
vertex 6.328455 -0.707107 -9.999994
vertex 6.257464 -0.765368 -9.999994
endloop
endfacet
facet normal -0.956930 0.290319 0.000000
outer loop
vertex 6.601847 -0.196036 -4.495710
vertex 6.602134 -0.195090 -4.495402
vertex 6.602134 -0.195090 -9.999994
endloop
endfacet
facet normal -0.956926 0.290333 0.000000
outer loop
vertex 6.601847 -0.196036 -4.495710
vertex 6.602134 -0.195090 -9.999994
vertex 6.601847 -0.196036 -9.999994
endloop
endfacet
facet normal 0.634395 0.773009 0.000000
outer loop
vertex 4.990120 -0.769378 -6.053370
vertex 5.065779 -0.831470 -5.945210
vertex 5.065779 -0.831470 -9.999994
endloop
endfacet
facet normal 0.634390 0.773013 0.000000
outer loop
vertex 4.990120 -0.769378 -6.053370
vertex 5.065779 -0.831470 -9.999994
vertex 4.990120 -0.769378 -9.999994
endloop
endfacet
facet normal -0.634397 0.773007 0.000000
outer loop
vertex 6.189210 -0.821383 -4.768556
vertex 6.257464 -0.765368 -4.720946
vertex 6.257464 -0.765368 -9.999994
endloop
endfacet
facet normal -0.634390 0.773013 0.000000
outer loop
vertex 6.189210 -0.821383 -4.768556
vertex 6.257464 -0.765368 -9.999994
vertex 6.189210 -0.821383 -9.999994
endloop
endfacet
facet normal -0.956941 0.290281 0.000000
outer loop
vertex 6.551969 -0.360465 -4.522069
vertex 6.601847 -0.196036 -4.495710
vertex 6.601847 -0.196036 -9.999994
endloop
endfacet
facet normal -0.956941 0.290283 0.000000
outer loop
vertex 6.551969 -0.360465 -4.522069
vertex 6.601847 -0.196036 -9.999994
vertex 6.551969 -0.360465 -9.999994
endloop
endfacet
facet normal -0.773009 -0.634395 0.000000
outer loop
vertex 6.452818 0.555570 -4.578904
vertex 6.432303 0.580568 -4.596067
vertex 6.432303 0.580568 -9.999994
endloop
endfacet
facet normal -0.773012 -0.634391 0.000000
outer loop
vertex 6.452818 0.555570 -4.578904
vertex 6.432303 0.580568 -9.999994
vertex 6.452818 0.555570 -9.999994
endloop
endfacet
facet normal -0.290282 0.956941 0.000000
outer loop
vertex 5.975430 -0.932556 -4.961331
vertex 6.004032 -0.923880 -4.935877
vertex 6.004032 -0.923880 -9.999994
endloop
endfacet
facet normal -0.290283 0.956941 0.000000
outer loop
vertex 5.975430 -0.932556 -4.961331
vertex 6.004032 -0.923880 -9.999994
vertex 5.975430 -0.932556 -9.999994
endloop
endfacet
facet normal -0.471426 0.881905 0.000000
outer loop
vertex 6.004032 -0.923880 -4.935877
vertex 6.009520 -0.920946 -4.931885
vertex 6.009520 -0.920946 -9.999994
endloop
endfacet
facet normal -0.471439 0.881898 0.000000
outer loop
vertex 6.004032 -0.923880 -4.935877
vertex 6.009520 -0.920946 -9.999994
vertex 6.004032 -0.923880 -9.999994
endloop
endfacet
facet normal 0.290288 -0.956939 0.000000
outer loop
vertex 5.301012 0.942792 -5.661033
vertex 5.238666 0.923880 -5.729598
vertex 5.238666 0.923880 -9.999994
endloop
endfacet
facet normal 0.290283 -0.956941 0.000000
outer loop
vertex 5.301012 0.942792 -5.661033
vertex 5.238666 0.923880 -9.999994
vertex 5.301012 0.942792 -9.999994
endloop
endfacet
facet normal -0.290293 0.956938 0.000000
outer loop
vertex 5.941679 -0.942794 -4.991367
vertex 5.975430 -0.932556 -4.961331
vertex 5.975430 -0.932556 -9.999994
endloop
endfacet
facet normal -0.290276 0.956943 0.000000
outer loop
vertex 5.941679 -0.942794 -4.991367
vertex 5.975430 -0.932556 -9.999994
vertex 5.941679 -0.942794 -9.999994
endloop
endfacet
facet normal 0.634232 -0.773143 0.000000
outer loop
vertex 4.985231 0.765366 -6.060357
vertex 4.983449 0.763904 -6.062677
vertex 4.983449 0.763904 -9.999994
endloop
endfacet
facet normal 0.634455 -0.772959 0.000000
outer loop
vertex 4.985231 0.765366 -6.060357
vertex 4.983449 0.763904 -9.999994
vertex 4.985231 0.765366 -9.999994
endloop
endfacet
facet normal 0.956938 0.290294 0.000000
outer loop
vertex 4.662337 -0.266869 -6.465203
vertex 4.697469 -0.382683 -6.417784
vertex 4.697469 -0.382683 -9.999994
endloop
endfacet
facet normal 0.956943 0.290275 0.000000
outer loop
vertex 4.662337 -0.266869 -6.465203
vertex 4.697469 -0.382683 -9.999994
vertex 4.662337 -0.266869 -9.999994
endloop
endfacet
facet normal -0.881873 -0.471487 0.000000
outer loop
vertex 6.545228 0.382683 -4.525630
vertex 6.541222 0.390180 -4.529168
vertex 6.541222 0.390180 -9.999994
endloop
endfacet
facet normal -0.882000 -0.471250 0.000000
outer loop
vertex 6.545228 0.382683 -4.525630
vertex 6.541222 0.390180 -9.999994
vertex 6.545228 0.382683 -9.999994
endloop
endfacet
facet normal 0.634391 -0.773012 0.000000
outer loop
vertex 5.065779 0.831470 -5.945209
vertex 4.985231 0.765366 -6.060357
vertex 4.985231 0.765366 -9.999994
endloop
endfacet
facet normal 0.634393 -0.773011 0.000000
outer loop
vertex 5.065779 0.831470 -5.945209
vertex 4.985231 0.765366 -9.999994
vertex 5.065779 0.831470 -9.999994
endloop
endfacet
facet normal -0.995185 0.098019 0.000000
outer loop
vertex 6.602134 -0.195090 -4.495402
vertex 6.603722 -0.178966 -4.494588
vertex 6.603722 -0.178966 -9.999994
endloop
endfacet
facet normal -0.995183 0.098033 0.000000
outer loop
vertex 6.602134 -0.195090 -4.495402
vertex 6.603722 -0.178966 -9.999994
vertex 6.602134 -0.195090 -9.999994
endloop
endfacet
facet normal -0.098017 0.995185 0.000000
outer loop
vertex 5.634014 -0.998753 -5.280940
vertex 5.816439 -0.980785 -5.095682
vertex 5.816439 -0.980785 -9.999994
endloop
endfacet
facet normal -0.098017 0.995185 0.000000
outer loop
vertex 5.634014 -0.998753 -5.280940
vertex 5.816439 -0.980785 -9.999994
vertex 5.634014 -0.998753 -9.999994
endloop
endfacet
facet normal 0.773009 -0.634395 0.000000
outer loop
vertex 4.810394 0.580568 -6.273348
vertex 4.789879 0.555570 -6.296349
vertex 4.789879 0.555570 -9.999994
endloop
endfacet
facet normal 0.773004 -0.634401 0.000000
outer loop
vertex 4.810394 0.580568 -6.273348
vertex 4.789879 0.555570 -9.999994
vertex 4.810394 0.580568 -9.999994
endloop
endfacet
facet normal -0.290285 -0.956940 0.000000
outer loop
vertex 5.941686 0.942792 -4.991360
vertex 5.816439 0.980785 -5.095680
vertex 5.816439 0.980785 -9.999994
endloop
endfacet
facet normal -0.290285 -0.956940 0.000000
outer loop
vertex 5.941686 0.942792 -4.991360
vertex 5.816439 0.980785 -9.999994
vertex 5.941686 0.942792 -9.999994
endloop
endfacet
facet normal -0.098026 0.995184 0.000000
outer loop
vertex 5.621349 -1.000000 -5.293801
vertex 5.634014 -0.998753 -5.280940
vertex 5.634014 -0.998753 -9.999994
endloop
endfacet
facet normal -0.098015 0.995185 0.000000
outer loop
vertex 5.621349 -1.000000 -5.293801
vertex 5.634014 -0.998753 -9.999994
vertex 5.621349 -1.000000 -9.999994
endloop
endfacet
facet normal -0.098017 -0.995185 0.000000
outer loop
vertex 5.816439 0.980785 -5.095680
vertex 5.621349 1.000000 -5.293799
vertex 5.621349 1.000000 -9.999994
endloop
endfacet
facet normal -0.098017 -0.995185 0.000000
outer loop
vertex 5.816439 0.980785 -5.095680
vertex 5.621349 1.000000 -9.999994
vertex 5.816439 0.980785 -9.999994
endloop
endfacet
facet normal 0.995187 -0.097996 0.000000
outer loop
vertex 4.640563 0.195090 -6.494475
vertex 4.634721 0.135766 -6.502432
vertex 4.634721 0.135766 -9.999994
endloop
endfacet
facet normal 0.995184 -0.098028 0.000000
outer loop
vertex 4.640563 0.195090 -6.494475
vertex 4.634721 0.135766 -9.999994
vertex 4.640563 0.195090 -9.999994
endloop
endfacet
facet normal 0.773009 0.634395 0.000000
outer loop
vertex 4.810396 -0.580570 -6.273346
vertex 4.914242 -0.707107 -6.140027
vertex 4.914242 -0.707107 -9.999994
endloop
endfacet
facet normal 0.773011 0.634393 0.000000
outer loop
vertex 4.810396 -0.580570 -6.273346
vertex 4.914242 -0.707107 -9.999994
vertex 4.810396 -0.580570 -9.999994
endloop
endfacet
facet normal -0.956939 -0.290289 0.000000
outer loop
vertex 6.596116 0.214931 -4.498739
vertex 6.545228 0.382683 -4.525630
vertex 6.545228 0.382683 -9.999994
endloop
endfacet
facet normal -0.956940 -0.290287 0.000000
outer loop
vertex 6.596116 0.214931 -4.498739
vertex 6.545228 0.382683 -9.999994
vertex 6.596116 0.214931 -9.999994
endloop
endfacet
facet normal 0.995184 -0.098023 0.000000
outer loop
vertex 4.634721 0.135766 -6.502432
vertex 4.621349 0.000000 -6.520643
vertex 4.621349 0.000000 -9.999994
endloop
endfacet
facet normal 0.995184 -0.098024 0.000000
outer loop
vertex 4.634721 0.135766 -6.502432
vertex 4.621349 0.000000 -9.999994
vertex 4.634721 0.135766 -9.999994
endloop
endfacet
facet normal 0.098016 -0.995185 0.000000
outer loop
vertex 5.471858 0.985276 -5.471862
vertex 5.426259 0.980785 -5.516819
vertex 5.426259 0.980785 -9.999994
endloop
endfacet
facet normal 0.098018 -0.995185 0.000000
outer loop
vertex 5.471858 0.985276 -5.471862
vertex 5.426259 0.980785 -9.999994
vertex 5.471858 0.985276 -9.999994
endloop
endfacet
facet normal -0.956947 -0.290262 0.000000
outer loop
vertex 6.601848 0.196034 -4.495710
vertex 6.596116 0.214931 -4.498739
vertex 6.596116 0.214931 -9.999994
endloop
endfacet
facet normal -0.956933 -0.290309 0.000000
outer loop
vertex 6.601848 0.196034 -4.495710
vertex 6.596116 0.214931 -9.999994
vertex 6.601848 0.196034 -9.999994
endloop
endfacet
facet normal 0.772998 0.634409 0.000000
outer loop
vertex 4.789879 -0.555570 -6.296350
vertex 4.810396 -0.580570 -6.273346
vertex 4.810396 -0.580570 -9.999994
endloop
endfacet
facet normal 0.773018 0.634384 0.000000
outer loop
vertex 4.789879 -0.555570 -6.296350
vertex 4.810396 -0.580570 -9.999994
vertex 4.789879 -0.555570 -9.999994
endloop
endfacet
facet normal -0.634390 -0.773013 0.000000
outer loop
vertex 6.257466 0.765366 -4.720943
vertex 6.176919 0.831470 -4.777128
vertex 6.176919 0.831470 -9.999994
endloop
endfacet
facet normal -0.634398 -0.773007 0.000000
outer loop
vertex 6.257466 0.765366 -4.720943
vertex 6.176919 0.831470 -9.999994
vertex 6.257466 0.765366 -9.999994
endloop
endfacet
facet normal -0.772994 0.634413 0.000000
outer loop
vertex 6.432302 -0.580570 -4.596069
vertex 6.452818 -0.555570 -4.578905
vertex 6.452818 -0.555570 -9.999994
endloop
endfacet
facet normal -0.773012 0.634391 0.000000
outer loop
vertex 6.432302 -0.580570 -4.596069
vertex 6.452818 -0.555570 -9.999994
vertex 6.432302 -0.580570 -9.999994
endloop
endfacet
facet normal -0.471396 0.881922 0.000000
outer loop
vertex 6.009520 -0.920946 -4.931885
vertex 6.176919 -0.831470 -4.777129
vertex 6.176919 -0.831470 -9.999994
endloop
endfacet
facet normal -0.471396 0.881922 0.000000
outer loop
vertex 6.009520 -0.920946 -4.931885
vertex 6.176919 -0.831470 -9.999994
vertex 6.009520 -0.920946 -9.999994
endloop
endfacet
facet normal 0.471396 -0.881922 0.000000
outer loop
vertex 5.238666 0.923880 -5.729598
vertex 5.152943 0.878060 -5.836505
vertex 5.152943 0.878060 -9.999994
endloop
endfacet
facet normal 0.471397 -0.881921 0.000000
outer loop
vertex 5.238666 0.923880 -5.729598
vertex 5.152943 0.878060 -9.999994
vertex 5.238666 0.923880 -9.999994
endloop
endfacet
facet normal -0.634428 0.772982 0.000000
outer loop
vertex 6.176919 -0.831470 -4.777129
vertex 6.189210 -0.821383 -4.768556
vertex 6.189210 -0.821383 -9.999994
endloop
endfacet
facet normal -0.634392 0.773012 0.000000
outer loop
vertex 6.176919 -0.831470 -4.777129
vertex 6.189210 -0.821383 -9.999994
vertex 6.176919 -0.831470 -9.999994
endloop
endfacet
facet normal -0.773007 0.634397 0.000000
outer loop
vertex 6.346946 -0.684576 -4.648763
vertex 6.432302 -0.580570 -4.596069
vertex 6.432302 -0.580570 -9.999994
endloop
endfacet
facet normal -0.773010 0.634394 0.000000
outer loop
vertex 6.346946 -0.684576 -4.648763
vertex 6.432302 -0.580570 -9.999994
vertex 6.346946 -0.684576 -9.999994
endloop
endfacet
facet normal 0.471400 -0.881920 0.000000
outer loop
vertex 5.152943 0.878060 -5.836505
vertex 5.065779 0.831470 -5.945209
vertex 5.065779 0.831470 -9.999994
endloop
endfacet
facet normal 0.471395 -0.881922 0.000000
outer loop
vertex 5.152943 0.878060 -5.836505
vertex 5.065779 0.831470 -9.999994
vertex 5.152943 0.878060 -9.999994
endloop
endfacet
facet normal 0.290289 0.956939 0.000000
outer loop
vertex 5.238666 -0.923880 -5.729599
vertex 5.301018 -0.942794 -5.661027
vertex 5.301018 -0.942794 -9.999994
endloop
endfacet
facet normal 0.290282 0.956941 0.000000
outer loop
vertex 5.238666 -0.923880 -5.729599
vertex 5.301018 -0.942794 -9.999994
vertex 5.238666 -0.923880 -9.999994
endloop
endfacet
facet normal 0.634438 0.772974 0.000000
outer loop
vertex 4.979611 -0.760754 -6.067677
vertex 4.985234 -0.765368 -6.060355
vertex 4.985234 -0.765368 -9.999994
endloop
endfacet
facet normal 0.634321 0.773070 0.000000
outer loop
vertex 4.979611 -0.760754 -6.067677
vertex 4.985234 -0.765368 -9.999994
vertex 4.979611 -0.760754 -9.999994
endloop
endfacet
facet normal 0.634390 -0.773013 0.000000
outer loop
vertex 4.979611 0.760753 -6.067676
vertex 4.914242 0.707107 -6.140027
vertex 4.914242 0.707107 -9.999994
endloop
endfacet
facet normal 0.634394 -0.773010 0.000000
outer loop
vertex 4.979611 0.760753 -6.067676
vertex 4.914242 0.707107 -9.999994
vertex 4.979611 0.760753 -9.999994
endloop
endfacet
facet normal -0.995185 0.098015 0.000000
outer loop
vertex 6.603722 -0.178966 -4.494588
vertex 6.621349 0.000000 -4.485563
vertex 6.621349 0.000000 -9.999994
endloop
endfacet
facet normal -0.995184 0.098021 0.000000
outer loop
vertex 6.603722 -0.178966 -4.494588
vertex 6.621349 0.000000 -9.999994
vertex 6.603722 -0.178966 -9.999994
endloop
endfacet
facet normal 0.634420 0.772988 0.000000
outer loop
vertex 4.985234 -0.765368 -6.060355
vertex 4.990120 -0.769378 -6.053370
vertex 4.990120 -0.769378 -9.999994
endloop
endfacet
facet normal 0.634425 0.772985 0.000000
outer loop
vertex 4.985234 -0.765368 -6.060355
vertex 4.990120 -0.769378 -9.999994
vertex 4.985234 -0.765368 -9.999994
endloop
endfacet
facet normal 0.957271 0.289193 0.000000
outer loop
vertex 4.640563 -0.195090 -6.494475
vertex 4.640850 -0.196034 -6.494205
vertex 4.640850 -0.196034 -9.999994
endloop
endfacet
facet normal 0.956959 0.290224 0.000000
outer loop
vertex 4.640563 -0.195090 -6.494475
vertex 4.640850 -0.196034 -9.999994
vertex 4.640563 -0.195090 -9.999994
endloop
endfacet
facet normal 0.290285 0.956940 0.000000
outer loop
vertex 5.301018 -0.942794 -5.661027
vertex 5.426259 -0.980785 -5.516821
vertex 5.426259 -0.980785 -9.999994
endloop
endfacet
facet normal 0.290284 0.956940 0.000000
outer loop
vertex 5.301018 -0.942794 -5.661027
vertex 5.426259 -0.980785 -9.999994
vertex 5.301018 -0.942794 -9.999994
endloop
endfacet
facet normal 0.956938 -0.290294 0.000000
outer loop
vertex 4.697469 0.382683 -6.417784
vertex 4.676633 0.313997 -6.445906
vertex 4.676633 0.313997 -9.999994
endloop
endfacet
facet normal 0.956940 -0.290286 0.000000
outer loop
vertex 4.697469 0.382683 -6.417784
vertex 4.676633 0.313997 -9.999994
vertex 4.697469 0.382683 -9.999994
endloop
endfacet
facet normal -0.290285 0.956940 0.000000
outer loop
vertex 5.816439 -0.980785 -5.095682
vertex 5.941679 -0.942794 -4.991367
vertex 5.941679 -0.942794 -9.999994
endloop
endfacet
facet normal -0.290285 0.956940 0.000000
outer loop
vertex 5.816439 -0.980785 -5.095682
vertex 5.941679 -0.942794 -9.999994
vertex 5.816439 -0.980785 -9.999994
endloop
endfacet
facet normal 0.956936 0.290300 0.000000
outer loop
vertex 4.640850 -0.196034 -6.494205
vertex 4.662337 -0.266869 -6.465203
vertex 4.662337 -0.266869 -9.999994
endloop
endfacet
facet normal 0.956942 0.290278 0.000000
outer loop
vertex 4.640850 -0.196034 -6.494205
vertex 4.662337 -0.266869 -9.999994
vertex 4.640850 -0.196034 -9.999994
endloop
endfacet
facet normal 0.098018 -0.995185 0.000000
outer loop
vertex 5.621349 1.000000 -5.293799
vertex 5.471858 0.985276 -5.471862
vertex 5.471858 0.985276 -9.999994
endloop
endfacet
facet normal 0.098017 -0.995185 0.000000
outer loop
vertex 5.621349 1.000000 -5.293799
vertex 5.471858 0.985276 -9.999994
vertex 5.621349 1.000000 -9.999994
endloop
endfacet
facet normal -0.471396 -0.881922 0.000000
outer loop
vertex 6.176919 0.831470 -4.777128
vertex 6.009519 0.920947 -4.931885
vertex 6.009519 0.920947 -9.999994
endloop
endfacet
facet normal -0.471398 -0.881921 0.000000
outer loop
vertex 6.176919 0.831470 -4.777128
vertex 6.009519 0.920947 -9.999994
vertex 6.176919 0.831470 -9.999994
endloop
endfacet
facet normal 0.956940 -0.290285 0.000000
outer loop
vertex 4.676633 0.313997 -6.445906
vertex 4.640850 0.196034 -6.494205
vertex 4.640850 0.196034 -9.999994
endloop
endfacet
facet normal 0.956941 -0.290284 0.000000
outer loop
vertex 4.676633 0.313997 -6.445906
vertex 4.640850 0.196034 -9.999994
vertex 4.676633 0.313997 -9.999994
endloop
endfacet
facet normal -0.881921 0.471396 0.000000
outer loop
vertex 6.452818 -0.555570 -4.578905
vertex 6.466597 -0.529793 -4.571154
vertex 6.466597 -0.529793 -9.999994
endloop
endfacet
facet normal -0.881922 0.471396 0.000000
outer loop
vertex 6.452818 -0.555570 -4.578905
vertex 6.466597 -0.529793 -9.999994
vertex 6.452818 -0.555570 -9.999994
endloop
endfacet
facet normal -0.471430 -0.881903 0.000000
outer loop
vertex 6.009519 0.920947 -4.931885
vertex 6.004032 0.923880 -4.935875
vertex 6.004032 0.923880 -9.999994
endloop
endfacet
facet normal -0.471417 -0.881910 0.000000
outer loop
vertex 6.009519 0.920947 -4.931885
vertex 6.004032 0.923880 -9.999994
vertex 6.009519 0.920947 -9.999994
endloop
endfacet
facet normal 0.098017 0.995185 0.000000
outer loop
vertex 5.471859 -0.985276 -5.471863
vertex 5.621349 -1.000000 -5.293801
vertex 5.621349 -1.000000 -9.999994
endloop
endfacet
facet normal 0.098018 0.995185 0.000000
outer loop
vertex 5.471859 -0.985276 -5.471863
vertex 5.621349 -1.000000 -9.999994
vertex 5.471859 -0.985276 -9.999994
endloop
endfacet
facet normal -0.995185 -0.098017 0.000000
outer loop
vertex 6.620061 0.013077 -4.486223
vertex 6.602134 0.195090 -4.495401
vertex 6.602134 0.195090 -9.999994
endloop
endfacet
facet normal -0.995184 -0.098020 0.000000
outer loop
vertex 6.620061 0.013077 -4.486223
vertex 6.602134 0.195090 -9.999994
vertex 6.620061 0.013077 -9.999994
endloop
endfacet
facet normal -0.773018 -0.634384 0.000000
outer loop
vertex 6.370378 0.656024 -4.634295
vertex 6.328455 0.707107 -4.660176
vertex 6.328455 0.707107 -9.999994
endloop
endfacet
facet normal -0.773009 -0.634395 0.000000
outer loop
vertex 6.370378 0.656024 -4.634295
vertex 6.328455 0.707107 -9.999994
vertex 6.370378 0.656024 -9.999994
endloop
endfacet
facet normal 0.995184 0.098020 0.000000
outer loop
vertex 4.621349 0.000000 -6.520643
vertex 4.626989 -0.057267 -6.512962
vertex 4.626989 -0.057267 -9.999994
endloop
endfacet
facet normal 0.995184 0.098027 0.000000
outer loop
vertex 4.621349 0.000000 -6.520643
vertex 4.626989 -0.057267 -9.999994
vertex 4.621349 0.000000 -9.999994
endloop
endfacet
facet normal 0.098016 0.995185 0.000000
outer loop
vertex 5.426259 -0.980785 -5.516821
vertex 5.471859 -0.985276 -5.471863
vertex 5.471859 -0.985276 -9.999994
endloop
endfacet
facet normal 0.098017 0.995185 0.000000
outer loop
vertex 5.426259 -0.980785 -5.516821
vertex 5.471859 -0.985276 -9.999994
vertex 5.426259 -0.980785 -9.999994
endloop
endfacet
facet normal -0.995183 -0.098033 0.000000
outer loop
vertex 6.621349 0.000000 -4.485563
vertex 6.620061 0.013077 -4.486223
vertex 6.620061 0.013077 -9.999994
endloop
endfacet
facet normal -0.995184 -0.098021 0.000000
outer loop
vertex 6.621349 0.000000 -4.485563
vertex 6.620061 0.013077 -9.999994
vertex 6.621349 0.000000 -9.999994
endloop
endfacet
facet normal 0.634385 -0.773017 0.000000
outer loop
vertex 4.983449 0.763904 -6.062677
vertex 4.979611 0.760753 -6.067676
vertex 4.979611 0.760753 -9.999994
endloop
endfacet
facet normal 0.634388 -0.773015 0.000000
outer loop
vertex 4.983449 0.763904 -6.062677
vertex 4.979611 0.760753 -9.999994
vertex 4.983449 0.763904 -9.999994
endloop
endfacet
facet normal -0.773006 -0.634398 0.000000
outer loop
vertex 6.432303 0.580568 -4.596067
vertex 6.370378 0.656024 -4.634295
vertex 6.370378 0.656024 -9.999994
endloop
endfacet
facet normal -0.773008 -0.634396 0.000000
outer loop
vertex 6.432303 0.580568 -4.596067
vertex 6.370378 0.656024 -9.999994
vertex 6.432303 0.580568 -9.999994
endloop
endfacet
facet normal 0.290282 -0.956941 0.000000
outer loop
vertex 5.426259 0.980785 -5.516819
vertex 5.389567 0.969655 -5.559067
vertex 5.389567 0.969655 -9.999994
endloop
endfacet
facet normal 0.290284 -0.956941 0.000000
outer loop
vertex 5.426259 0.980785 -5.516819
vertex 5.389567 0.969655 -9.999994
vertex 5.426259 0.980785 -9.999994
endloop
endfacet
facet normal -0.881923 -0.471394 0.000000
outer loop
vertex 6.521256 0.427533 -4.540401
vertex 6.452818 0.555570 -4.578904
vertex 6.452818 0.555570 -9.999994
endloop
endfacet
facet normal -0.881920 -0.471399 0.000000
outer loop
vertex 6.521256 0.427533 -4.540401
vertex 6.452818 0.555570 -9.999994
vertex 6.521256 0.427533 -9.999994
endloop
endfacet
facet normal 0.290288 -0.956939 0.000000
outer loop
vertex 5.389567 0.969655 -5.559067
vertex 5.301012 0.942792 -5.661033
vertex 5.301012 0.942792 -9.999994
endloop
endfacet
facet normal 0.290283 -0.956941 0.000000
outer loop
vertex 5.389567 0.969655 -5.559067
vertex 5.301012 0.942792 -9.999994
vertex 5.389567 0.969655 -9.999994
endloop
endfacet
facet normal -0.881916 0.471407 0.000000
outer loop
vertex 6.541220 -0.390182 -4.529170
vertex 6.545228 -0.382683 -4.525630
vertex 6.545228 -0.382683 -9.999994
endloop
endfacet
facet normal -0.881925 0.471389 0.000000
outer loop
vertex 6.541220 -0.390182 -4.529170
vertex 6.545228 -0.382683 -9.999994
vertex 6.541220 -0.390182 -9.999994
endloop
endfacet
facet normal -0.881926 -0.471388 0.000000
outer loop
vertex 6.541222 0.390180 -4.529168
vertex 6.521256 0.427533 -4.540401
vertex 6.521256 0.427533 -9.999994
endloop
endfacet
facet normal -0.881918 -0.471403 0.000000
outer loop
vertex 6.541222 0.390180 -4.529168
vertex 6.521256 0.427533 -9.999994
vertex 6.541222 0.390180 -9.999994
endloop
endfacet
facet normal -0.881920 0.471399 0.000000
outer loop
vertex 6.466597 -0.529793 -4.571154
vertex 6.541220 -0.390182 -4.529170
vertex 6.541220 -0.390182 -9.999994
endloop
endfacet
facet normal -0.881921 0.471397 0.000000
outer loop
vertex 6.466597 -0.529793 -4.571154
vertex 6.541220 -0.390182 -9.999994
vertex 6.466597 -0.529793 -9.999994
endloop
endfacet
facet normal 0.881888 0.471460 0.000000
outer loop
vertex 4.697469 -0.382683 -6.417784
vertex 4.701478 -0.390182 -6.413428
vertex 4.701478 -0.390182 -9.999994
endloop
endfacet
facet normal 0.881910 0.471418 0.000000
outer loop
vertex 4.697469 -0.382683 -6.417784
vertex 4.701478 -0.390182 -9.999994
vertex 4.697469 -0.382683 -9.999994
endloop
endfacet
facet normal 0.881926 -0.471387 0.000000
outer loop
vertex 4.789879 0.555570 -6.296349
vertex 4.748506 0.478165 -6.351144
vertex 4.748506 0.478165 -9.999994
endloop
endfacet
facet normal 0.881923 -0.471393 0.000000
outer loop
vertex 4.789879 0.555570 -6.296349
vertex 4.748506 0.478165 -9.999994
vertex 4.789879 0.555570 -9.999994
endloop
endfacet
endsolid wall2
