solid circle
facet normal 0.634393 0.773011 0.000000
outer loop
vertex 0.015783 0.019232 -0.010000
vertex 0.013889 0.020787 -0.010000
vertex 0.013889 0.020787 0.010000
endloop
endfacet
facet normal 0.634393 0.773011 0.000000
outer loop
vertex 0.015783 0.019232 -0.010000
vertex 0.013889 0.020787 0.010000
vertex 0.015783 0.019232 0.010000
endloop
endfacet
facet normal -0.773014 0.634389 0.000000
outer loop
vertex -0.019232 0.015783 -0.010000
vertex -0.020787 0.013889 -0.010000
vertex -0.020787 0.013889 0.010000
endloop
endfacet
facet normal -0.773013 0.634390 0.000000
outer loop
vertex -0.019232 0.015783 -0.010000
vertex -0.020787 0.013889 0.010000
vertex -0.019232 0.015783 0.010000
endloop
endfacet
facet normal -0.290282 -0.956941 0.000000
outer loop
vertex -0.007222 -0.023808 -0.010000
vertex -0.004877 -0.024520 -0.010000
vertex -0.004877 -0.024520 0.010000
endloop
endfacet
facet normal -0.290281 -0.956941 0.000000
outer loop
vertex -0.007222 -0.023808 -0.010000
vertex -0.004877 -0.024520 0.010000
vertex -0.007222 -0.023808 0.010000
endloop
endfacet
facet normal 0.881924 0.471392 0.000000
outer loop
vertex 0.021942 0.011728 -0.010000
vertex 0.020787 0.013889 -0.010000
vertex 0.020787 0.013889 0.010000
endloop
endfacet
facet normal 0.881924 0.471393 0.000000
outer loop
vertex 0.021942 0.011728 -0.010000
vertex 0.020787 0.013889 0.010000
vertex 0.021942 0.011728 0.010000
endloop
endfacet
facet normal -0.634393 0.773011 0.000000
outer loop
vertex -0.015783 0.019232 -0.010000
vertex -0.017678 0.017678 -0.010000
vertex -0.017678 0.017678 0.010000
endloop
endfacet
facet normal -0.634393 0.773011 0.000000
outer loop
vertex -0.015783 0.019232 -0.010000
vertex -0.017678 0.017678 0.010000
vertex -0.015783 0.019232 0.010000
endloop
endfacet
facet normal -0.471397 -0.881921 0.000000
outer loop
vertex -0.011728 -0.021942 -0.010000
vertex -0.009567 -0.023097 -0.010000
vertex -0.009567 -0.023097 0.010000
endloop
endfacet
facet normal -0.471397 -0.881921 0.000000
outer loop
vertex -0.011728 -0.021942 -0.010000
vertex -0.009567 -0.023097 0.010000
vertex -0.011728 -0.021942 0.010000
endloop
endfacet
facet normal 0.995185 0.098014 0.000000
outer loop
vertex 0.024760 0.002439 -0.010000
vertex 0.024520 0.004877 -0.010000
vertex 0.024520 0.004877 0.010000
endloop
endfacet
facet normal 0.995185 0.098014 0.000000
outer loop
vertex 0.024760 0.002439 -0.010000
vertex 0.024520 0.004877 0.010000
vertex 0.024760 0.002439 0.010000
endloop
endfacet
facet normal -0.471396 0.881921 0.000000
outer loop
vertex -0.011728 0.021942 -0.010000
vertex -0.013889 0.020787 -0.010000
vertex -0.013889 0.020787 0.010000
endloop
endfacet
facet normal -0.471396 0.881921 0.000000
outer loop
vertex -0.011728 0.021942 -0.010000
vertex -0.013889 0.020787 0.010000
vertex -0.011728 0.021942 0.010000
endloop
endfacet
facet normal -0.773007 -0.634397 0.000000
outer loop
vertex -0.019232 -0.015783 -0.010000
vertex -0.017678 -0.017678 -0.010000
vertex -0.017678 -0.017678 0.010000
endloop
endfacet
facet normal -0.773008 -0.634396 0.000000
outer loop
vertex -0.019232 -0.015783 -0.010000
vertex -0.017678 -0.017678 0.010000
vertex -0.019232 -0.015783 0.010000
endloop
endfacet
facet normal -0.290285 0.956940 0.000000
outer loop
vertex -0.007222 0.023808 -0.010000
vertex -0.009567 0.023097 -0.010000
vertex -0.009567 0.023097 0.010000
endloop
endfacet
facet normal -0.290285 0.956940 0.000000
outer loop
vertex -0.007222 0.023808 -0.010000
vertex -0.009567 0.023097 0.010000
vertex -0.007222 0.023808 0.010000
endloop
endfacet
facet normal -0.956940 -0.290285 0.000000
outer loop
vertex -0.023808 -0.007222 -0.010000
vertex -0.023097 -0.009567 -0.010000
vertex -0.023097 -0.009567 0.010000
endloop
endfacet
facet normal -0.956940 -0.290286 0.000000
outer loop
vertex -0.023808 -0.007222 -0.010000
vertex -0.023097 -0.009567 0.010000
vertex -0.023808 -0.007222 0.010000
endloop
endfacet
facet normal -0.098016 0.995185 0.000000
outer loop
vertex -0.002439 0.024760 -0.010000
vertex -0.004877 0.024520 -0.010000
vertex -0.004877 0.024520 0.010000
endloop
endfacet
facet normal -0.098016 0.995185 0.000000
outer loop
vertex -0.002439 0.024760 -0.010000
vertex -0.004877 0.024520 0.010000
vertex -0.002439 0.024760 0.010000
endloop
endfacet
facet normal -0.634393 -0.773011 0.000000
outer loop
vertex -0.015783 -0.019232 -0.010000
vertex -0.013889 -0.020787 -0.010000
vertex -0.013889 -0.020787 0.010000
endloop
endfacet
facet normal -0.634393 -0.773011 0.000000
outer loop
vertex -0.015783 -0.019232 -0.010000
vertex -0.013889 -0.020787 0.010000
vertex -0.015783 -0.019232 0.010000
endloop
endfacet
facet normal -0.098018 0.995185 0.000000
outer loop
vertex 0.000000 0.025000 -0.010000
vertex -0.002439 0.024760 -0.010000
vertex -0.002439 0.024760 0.010000
endloop
endfacet
facet normal -0.098018 0.995185 0.000000
outer loop
vertex 0.000000 0.025000 -0.010000
vertex -0.002439 0.024760 0.010000
vertex 0.000000 0.025000 0.010000
endloop
endfacet
facet normal -0.881924 -0.471392 0.000000
outer loop
vertex -0.021942 -0.011728 -0.010000
vertex -0.020787 -0.013889 -0.010000
vertex -0.020787 -0.013889 0.010000
endloop
endfacet
facet normal -0.881924 -0.471393 0.000000
outer loop
vertex -0.021942 -0.011728 -0.010000
vertex -0.020787 -0.013889 0.010000
vertex -0.021942 -0.011728 0.010000
endloop
endfacet
facet normal -0.290281 0.956941 0.000000
outer loop
vertex -0.004877 0.024520 -0.010000
vertex -0.007222 0.023808 -0.010000
vertex -0.007222 0.023808 0.010000
endloop
endfacet
facet normal -0.290282 0.956941 0.000000
outer loop
vertex -0.004877 0.024520 -0.010000
vertex -0.007222 0.023808 0.010000
vertex -0.004877 0.024520 0.010000
endloop
endfacet
facet normal -0.995185 -0.098014 0.000000
outer loop
vertex -0.024760 -0.002439 -0.010000
vertex -0.024520 -0.004877 -0.010000
vertex -0.024520 -0.004877 0.010000
endloop
endfacet
facet normal -0.995185 -0.098014 0.000000
outer loop
vertex -0.024760 -0.002439 -0.010000
vertex -0.024520 -0.004877 0.010000
vertex -0.024760 -0.002439 0.010000
endloop
endfacet
facet normal -0.471397 0.881921 0.000000
outer loop
vertex -0.009567 0.023097 -0.010000
vertex -0.011728 0.021942 -0.010000
vertex -0.011728 0.021942 0.010000
endloop
endfacet
facet normal -0.471397 0.881921 0.000000
outer loop
vertex -0.009567 0.023097 -0.010000
vertex -0.011728 0.021942 0.010000
vertex -0.009567 0.023097 0.010000
endloop
endfacet
facet normal 0.995185 -0.098014 0.000000
outer loop
vertex 0.024760 -0.002439 -0.010000
vertex 0.025000 0.000000 -0.010000
vertex 0.025000 0.000000 0.010000
endloop
endfacet
facet normal 0.995185 -0.098014 0.000000
outer loop
vertex 0.024760 -0.002439 -0.010000
vertex 0.025000 0.000000 0.010000
vertex 0.024760 -0.002439 0.010000
endloop
endfacet
facet normal -0.773008 0.634396 0.000000
outer loop
vertex -0.017678 0.017678 -0.010000
vertex -0.019232 0.015783 -0.010000
vertex -0.019232 0.015783 0.010000
endloop
endfacet
facet normal -0.773007 0.634397 0.000000
outer loop
vertex -0.017678 0.017678 -0.010000
vertex -0.019232 0.015783 0.010000
vertex -0.017678 0.017678 0.010000
endloop
endfacet
facet normal 0.956940 -0.290286 0.000000
outer loop
vertex 0.023808 -0.007222 -0.010000
vertex 0.024520 -0.004877 -0.010000
vertex 0.024520 -0.004877 0.010000
endloop
endfacet
facet normal 0.956940 -0.290285 0.000000
outer loop
vertex 0.023808 -0.007222 -0.010000
vertex 0.024520 -0.004877 0.010000
vertex 0.023808 -0.007222 0.010000
endloop
endfacet
facet normal -0.956940 0.290286 0.000000
outer loop
vertex -0.023097 0.009567 -0.010000
vertex -0.023808 0.007222 -0.010000
vertex -0.023808 0.007222 0.010000
endloop
endfacet
facet normal -0.956940 0.290285 0.000000
outer loop
vertex -0.023097 0.009567 -0.010000
vertex -0.023808 0.007222 0.010000
vertex -0.023097 0.009567 0.010000
endloop
endfacet
facet normal 0.881919 -0.471401 0.000000
outer loop
vertex 0.021942 -0.011728 -0.010000
vertex 0.023097 -0.009567 -0.010000
vertex 0.023097 -0.009567 0.010000
endloop
endfacet
facet normal 0.881919 -0.471401 0.000000
outer loop
vertex 0.021942 -0.011728 -0.010000
vertex 0.023097 -0.009567 0.010000
vertex 0.021942 -0.011728 0.010000
endloop
endfacet
facet normal -0.634393 0.773011 0.000000
outer loop
vertex -0.013889 0.020787 -0.010000
vertex -0.015783 0.019232 -0.010000
vertex -0.015783 0.019232 0.010000
endloop
endfacet
facet normal -0.634393 0.773011 0.000000
outer loop
vertex -0.013889 0.020787 -0.010000
vertex -0.015783 0.019232 0.010000
vertex -0.013889 0.020787 0.010000
endloop
endfacet
facet normal 0.773014 -0.634389 0.000000
outer loop
vertex 0.019232 -0.015783 -0.010000
vertex 0.020787 -0.013889 -0.010000
vertex 0.020787 -0.013889 0.010000
endloop
endfacet
facet normal 0.773013 -0.634390 0.000000
outer loop
vertex 0.019232 -0.015783 -0.010000
vertex 0.020787 -0.013889 0.010000
vertex 0.019232 -0.015783 0.010000
endloop
endfacet
facet normal -0.881924 0.471393 0.000000
outer loop
vertex -0.020787 0.013889 -0.010000
vertex -0.021942 0.011728 -0.010000
vertex -0.021942 0.011728 0.010000
endloop
endfacet
facet normal -0.881924 0.471392 0.000000
outer loop
vertex -0.020787 0.013889 -0.010000
vertex -0.021942 0.011728 0.010000
vertex -0.020787 0.013889 0.010000
endloop
endfacet
facet normal 0.634393 -0.773011 0.000000
outer loop
vertex 0.015783 -0.019232 -0.010000
vertex 0.017678 -0.017678 -0.010000
vertex 0.017678 -0.017678 0.010000
endloop
endfacet
facet normal 0.634393 -0.773011 0.000000
outer loop
vertex 0.015783 -0.019232 -0.010000
vertex 0.017678 -0.017678 0.010000
vertex 0.015783 -0.019232 0.010000
endloop
endfacet
facet normal -0.995185 0.098014 0.000000
outer loop
vertex -0.024520 0.004877 -0.010000
vertex -0.024760 0.002439 -0.010000
vertex -0.024760 0.002439 0.010000
endloop
endfacet
facet normal -0.995185 0.098014 0.000000
outer loop
vertex -0.024520 0.004877 -0.010000
vertex -0.024760 0.002439 0.010000
vertex -0.024520 0.004877 0.010000
endloop
endfacet
facet normal 0.471396 -0.881921 0.000000
outer loop
vertex 0.011728 -0.021942 -0.010000
vertex 0.013889 -0.020787 -0.010000
vertex 0.013889 -0.020787 0.010000
endloop
endfacet
facet normal 0.471396 -0.881921 0.000000
outer loop
vertex 0.011728 -0.021942 -0.010000
vertex 0.013889 -0.020787 0.010000
vertex 0.011728 -0.021942 0.010000
endloop
endfacet
facet normal 0.995185 0.098014 0.000000
outer loop
vertex 0.025000 0.000000 -0.010000
vertex 0.024760 0.002439 -0.010000
vertex 0.024760 0.002439 0.010000
endloop
endfacet
facet normal 0.995185 0.098014 0.000000
outer loop
vertex 0.025000 0.000000 -0.010000
vertex 0.024760 0.002439 0.010000
vertex 0.025000 0.000000 0.010000
endloop
endfacet
facet normal 0.290285 -0.956940 0.000000
outer loop
vertex 0.007222 -0.023808 -0.010000
vertex 0.009567 -0.023097 -0.010000
vertex 0.009567 -0.023097 0.010000
endloop
endfacet
facet normal 0.290285 -0.956940 0.000000
outer loop
vertex 0.007222 -0.023808 -0.010000
vertex 0.009567 -0.023097 0.010000
vertex 0.007222 -0.023808 0.010000
endloop
endfacet
facet normal 0.956940 0.290285 0.000000
outer loop
vertex 0.024520 0.004877 -0.010000
vertex 0.023808 0.007222 -0.010000
vertex 0.023808 0.007222 0.010000
endloop
endfacet
facet normal 0.956940 0.290286 0.000000
outer loop
vertex 0.024520 0.004877 -0.010000
vertex 0.023808 0.007222 0.010000
vertex 0.024520 0.004877 0.010000
endloop
endfacet
facet normal 0.098016 -0.995185 0.000000
outer loop
vertex 0.002439 -0.024760 -0.010000
vertex 0.004877 -0.024520 -0.010000
vertex 0.004877 -0.024520 0.010000
endloop
endfacet
facet normal 0.098016 -0.995185 0.000000
outer loop
vertex 0.002439 -0.024760 -0.010000
vertex 0.004877 -0.024520 0.010000
vertex 0.002439 -0.024760 0.010000
endloop
endfacet
facet normal 0.881919 0.471401 0.000000
outer loop
vertex 0.023097 0.009567 -0.010000
vertex 0.021942 0.011728 -0.010000
vertex 0.021942 0.011728 0.010000
endloop
endfacet
facet normal 0.881919 0.471401 0.000000
outer loop
vertex 0.023097 0.009567 -0.010000
vertex 0.021942 0.011728 0.010000
vertex 0.023097 0.009567 0.010000
endloop
endfacet
facet normal 0.098018 -0.995185 0.000000
outer loop
vertex 0.000000 -0.025000 -0.010000
vertex 0.002439 -0.024760 -0.010000
vertex 0.002439 -0.024760 0.010000
endloop
endfacet
facet normal 0.098018 -0.995185 0.000000
outer loop
vertex 0.000000 -0.025000 -0.010000
vertex 0.002439 -0.024760 0.010000
vertex 0.000000 -0.025000 0.010000
endloop
endfacet
facet normal 0.773013 0.634390 0.000000
outer loop
vertex 0.020787 0.013889 -0.010000
vertex 0.019232 0.015783 -0.010000
vertex 0.019232 0.015783 0.010000
endloop
endfacet
facet normal 0.773014 0.634389 0.000000
outer loop
vertex 0.020787 0.013889 -0.010000
vertex 0.019232 0.015783 0.010000
vertex 0.020787 0.013889 0.010000
endloop
endfacet
facet normal 0.290281 -0.956941 0.000000
outer loop
vertex 0.004877 -0.024520 -0.010000
vertex 0.007222 -0.023808 -0.010000
vertex 0.007222 -0.023808 0.010000
endloop
endfacet
facet normal 0.290282 -0.956941 0.000000
outer loop
vertex 0.004877 -0.024520 -0.010000
vertex 0.007222 -0.023808 0.010000
vertex 0.004877 -0.024520 0.010000
endloop
endfacet
facet normal 0.634393 0.773011 0.000000
outer loop
vertex 0.017678 0.017678 -0.010000
vertex 0.015783 0.019232 -0.010000
vertex 0.015783 0.019232 0.010000
endloop
endfacet
facet normal 0.634393 0.773011 0.000000
outer loop
vertex 0.017678 0.017678 -0.010000
vertex 0.015783 0.019232 0.010000
vertex 0.017678 0.017678 0.010000
endloop
endfacet
facet normal 0.471397 -0.881921 0.000000
outer loop
vertex 0.009567 -0.023097 -0.010000
vertex 0.011728 -0.021942 -0.010000
vertex 0.011728 -0.021942 0.010000
endloop
endfacet
facet normal 0.471397 -0.881921 0.000000
outer loop
vertex 0.009567 -0.023097 -0.010000
vertex 0.011728 -0.021942 0.010000
vertex 0.009567 -0.023097 0.010000
endloop
endfacet
facet normal -0.995185 -0.098014 0.000000
outer loop
vertex -0.025000 0.000000 -0.010000
vertex -0.024760 -0.002439 -0.010000
vertex -0.024760 -0.002439 0.010000
endloop
endfacet
facet normal -0.995185 -0.098014 0.000000
outer loop
vertex -0.025000 0.000000 -0.010000
vertex -0.024760 -0.002439 0.010000
vertex -0.025000 0.000000 0.010000
endloop
endfacet
facet normal 0.471396 0.881921 0.000000
outer loop
vertex 0.013889 0.020787 -0.010000
vertex 0.011728 0.021942 -0.010000
vertex 0.011728 0.021942 0.010000
endloop
endfacet
facet normal 0.471396 0.881921 0.000000
outer loop
vertex 0.013889 0.020787 -0.010000
vertex 0.011728 0.021942 0.010000
vertex 0.013889 0.020787 0.010000
endloop
endfacet
facet normal 0.773008 -0.634396 0.000000
outer loop
vertex 0.017678 -0.017678 -0.010000
vertex 0.019232 -0.015783 -0.010000
vertex 0.019232 -0.015783 0.010000
endloop
endfacet
facet normal 0.773007 -0.634397 0.000000
outer loop
vertex 0.017678 -0.017678 -0.010000
vertex 0.019232 -0.015783 0.010000
vertex 0.017678 -0.017678 0.010000
endloop
endfacet
facet normal -0.956940 -0.290285 0.000000
outer loop
vertex -0.024520 -0.004877 -0.010000
vertex -0.023808 -0.007222 -0.010000
vertex -0.023808 -0.007222 0.010000
endloop
endfacet
facet normal -0.956940 -0.290286 0.000000
outer loop
vertex -0.024520 -0.004877 -0.010000
vertex -0.023808 -0.007222 0.010000
vertex -0.024520 -0.004877 0.010000
endloop
endfacet
facet normal 0.290285 0.956940 0.000000
outer loop
vertex 0.009567 0.023097 -0.010000
vertex 0.007222 0.023808 -0.010000
vertex 0.007222 0.023808 0.010000
endloop
endfacet
facet normal 0.290285 0.956940 0.000000
outer loop
vertex 0.009567 0.023097 -0.010000
vertex 0.007222 0.023808 0.010000
vertex 0.009567 0.023097 0.010000
endloop
endfacet
facet normal 0.956940 -0.290286 0.000000
outer loop
vertex 0.023097 -0.009567 -0.010000
vertex 0.023808 -0.007222 -0.010000
vertex 0.023808 -0.007222 0.010000
endloop
endfacet
facet normal 0.956940 -0.290285 0.000000
outer loop
vertex 0.023097 -0.009567 -0.010000
vertex 0.023808 -0.007222 0.010000
vertex 0.023097 -0.009567 0.010000
endloop
endfacet
facet normal -0.881919 -0.471401 0.000000
outer loop
vertex -0.023097 -0.009567 -0.010000
vertex -0.021942 -0.011728 -0.010000
vertex -0.021942 -0.011728 0.010000
endloop
endfacet
facet normal -0.881919 -0.471401 0.000000
outer loop
vertex -0.023097 -0.009567 -0.010000
vertex -0.021942 -0.011728 0.010000
vertex -0.023097 -0.009567 0.010000
endloop
endfacet
facet normal 0.098016 0.995185 0.000000
outer loop
vertex 0.004877 0.024520 -0.010000
vertex 0.002439 0.024760 -0.010000
vertex 0.002439 0.024760 0.010000
endloop
endfacet
facet normal 0.098016 0.995185 0.000000
outer loop
vertex 0.004877 0.024520 -0.010000
vertex 0.002439 0.024760 0.010000
vertex 0.004877 0.024520 0.010000
endloop
endfacet
facet normal 0.634393 -0.773011 0.000000
outer loop
vertex 0.013889 -0.020787 -0.010000
vertex 0.015783 -0.019232 -0.010000
vertex 0.015783 -0.019232 0.010000
endloop
endfacet
facet normal 0.634393 -0.773011 0.000000
outer loop
vertex 0.013889 -0.020787 -0.010000
vertex 0.015783 -0.019232 0.010000
vertex 0.013889 -0.020787 0.010000
endloop
endfacet
facet normal -0.773013 -0.634390 0.000000
outer loop
vertex -0.020787 -0.013889 -0.010000
vertex -0.019232 -0.015783 -0.010000
vertex -0.019232 -0.015783 0.010000
endloop
endfacet
facet normal -0.773014 -0.634389 0.000000
outer loop
vertex -0.020787 -0.013889 -0.010000
vertex -0.019232 -0.015783 0.010000
vertex -0.020787 -0.013889 0.010000
endloop
endfacet
facet normal 0.098018 0.995185 0.000000
outer loop
vertex 0.002439 0.024760 -0.010000
vertex 0.000000 0.025000 -0.010000
vertex 0.000000 0.025000 0.010000
endloop
endfacet
facet normal 0.098018 0.995185 0.000000
outer loop
vertex 0.002439 0.024760 -0.010000
vertex 0.000000 0.025000 0.010000
vertex 0.002439 0.024760 0.010000
endloop
endfacet
facet normal 0.881924 -0.471393 0.000000
outer loop
vertex 0.020787 -0.013889 -0.010000
vertex 0.021942 -0.011728 -0.010000
vertex 0.021942 -0.011728 0.010000
endloop
endfacet
facet normal 0.881924 -0.471392 0.000000
outer loop
vertex 0.020787 -0.013889 -0.010000
vertex 0.021942 -0.011728 0.010000
vertex 0.020787 -0.013889 0.010000
endloop
endfacet
facet normal -0.634393 -0.773011 0.000000
outer loop
vertex -0.017678 -0.017678 -0.010000
vertex -0.015783 -0.019232 -0.010000
vertex -0.015783 -0.019232 0.010000
endloop
endfacet
facet normal -0.634393 -0.773011 0.000000
outer loop
vertex -0.017678 -0.017678 -0.010000
vertex -0.015783 -0.019232 0.010000
vertex -0.017678 -0.017678 0.010000
endloop
endfacet
facet normal 0.290282 0.956941 0.000000
outer loop
vertex 0.007222 0.023808 -0.010000
vertex 0.004877 0.024520 -0.010000
vertex 0.004877 0.024520 0.010000
endloop
endfacet
facet normal 0.290281 0.956941 0.000000
outer loop
vertex 0.007222 0.023808 -0.010000
vertex 0.004877 0.024520 0.010000
vertex 0.007222 0.023808 0.010000
endloop
endfacet
facet normal 0.995185 -0.098014 0.000000
outer loop
vertex 0.024520 -0.004877 -0.010000
vertex 0.024760 -0.002439 -0.010000
vertex 0.024760 -0.002439 0.010000
endloop
endfacet
facet normal 0.995185 -0.098014 0.000000
outer loop
vertex 0.024520 -0.004877 -0.010000
vertex 0.024760 -0.002439 0.010000
vertex 0.024520 -0.004877 0.010000
endloop
endfacet
facet normal -0.471396 -0.881921 0.000000
outer loop
vertex -0.013889 -0.020787 -0.010000
vertex -0.011728 -0.021942 -0.010000
vertex -0.011728 -0.021942 0.010000
endloop
endfacet
facet normal -0.471396 -0.881921 0.000000
outer loop
vertex -0.013889 -0.020787 -0.010000
vertex -0.011728 -0.021942 0.010000
vertex -0.013889 -0.020787 0.010000
endloop
endfacet
facet normal 0.471397 0.881921 0.000000
outer loop
vertex 0.011728 0.021942 -0.010000
vertex 0.009567 0.023097 -0.010000
vertex 0.009567 0.023097 0.010000
endloop
endfacet
facet normal 0.471397 0.881921 0.000000
outer loop
vertex 0.011728 0.021942 -0.010000
vertex 0.009567 0.023097 0.010000
vertex 0.011728 0.021942 0.010000
endloop
endfacet
facet normal -0.995185 0.098014 0.000000
outer loop
vertex -0.024760 0.002439 -0.010000
vertex -0.025000 0.000000 -0.010000
vertex -0.025000 0.000000 0.010000
endloop
endfacet
facet normal -0.995185 0.098014 0.000000
outer loop
vertex -0.024760 0.002439 -0.010000
vertex -0.025000 0.000000 0.010000
vertex -0.024760 0.002439 0.010000
endloop
endfacet
facet normal -0.290285 -0.956940 0.000000
outer loop
vertex -0.009567 -0.023097 -0.010000
vertex -0.007222 -0.023808 -0.010000
vertex -0.007222 -0.023808 0.010000
endloop
endfacet
facet normal -0.290285 -0.956940 0.000000
outer loop
vertex -0.009567 -0.023097 -0.010000
vertex -0.007222 -0.023808 0.010000
vertex -0.009567 -0.023097 0.010000
endloop
endfacet
facet normal 0.773007 0.634397 0.000000
outer loop
vertex 0.019232 0.015783 -0.010000
vertex 0.017678 0.017678 -0.010000
vertex 0.017678 0.017678 0.010000
endloop
endfacet
facet normal 0.773008 0.634396 0.000000
outer loop
vertex 0.019232 0.015783 -0.010000
vertex 0.017678 0.017678 0.010000
vertex 0.019232 0.015783 0.010000
endloop
endfacet
facet normal -0.956940 0.290286 0.000000
outer loop
vertex -0.023808 0.007222 -0.010000
vertex -0.024520 0.004877 -0.010000
vertex -0.024520 0.004877 0.010000
endloop
endfacet
facet normal -0.956940 0.290285 0.000000
outer loop
vertex -0.023808 0.007222 -0.010000
vertex -0.024520 0.004877 0.010000
vertex -0.023808 0.007222 0.010000
endloop
endfacet
facet normal -0.098016 -0.995185 0.000000
outer loop
vertex -0.004877 -0.024520 -0.010000
vertex -0.002439 -0.024760 -0.010000
vertex -0.002439 -0.024760 0.010000
endloop
endfacet
facet normal -0.098016 -0.995185 0.000000
outer loop
vertex -0.004877 -0.024520 -0.010000
vertex -0.002439 -0.024760 0.010000
vertex -0.004877 -0.024520 0.010000
endloop
endfacet
facet normal 0.956940 0.290285 0.000000
outer loop
vertex 0.023808 0.007222 -0.010000
vertex 0.023097 0.009567 -0.010000
vertex 0.023097 0.009567 0.010000
endloop
endfacet
facet normal 0.956940 0.290286 0.000000
outer loop
vertex 0.023808 0.007222 -0.010000
vertex 0.023097 0.009567 0.010000
vertex 0.023808 0.007222 0.010000
endloop
endfacet
facet normal -0.881919 0.471401 0.000000
outer loop
vertex -0.021942 0.011728 -0.010000
vertex -0.023097 0.009567 -0.010000
vertex -0.023097 0.009567 0.010000
endloop
endfacet
facet normal -0.881919 0.471401 0.000000
outer loop
vertex -0.021942 0.011728 -0.010000
vertex -0.023097 0.009567 0.010000
vertex -0.021942 0.011728 0.010000
endloop
endfacet
facet normal -0.098018 -0.995185 0.000000
outer loop
vertex -0.002439 -0.024760 -0.010000
vertex 0.000000 -0.025000 -0.010000
vertex 0.000000 -0.025000 0.010000
endloop
endfacet
facet normal -0.098018 -0.995185 0.000000
outer loop
vertex -0.002439 -0.024760 -0.010000
vertex 0.000000 -0.025000 0.010000
vertex -0.002439 -0.024760 0.010000
endloop
endfacet
endsolid circle
