solid inlet
facet normal 1.000000 0.000000 0.000000
outer loop
vertex -0.500000 0.047727 -0.010000
vertex -0.500000 0.050000 -0.010000
vertex -0.500000 0.050000 0.010000
endloop
endfacet
facet normal 1.000000 0.000000 0.000000
outer loop
vertex -0.500000 0.047727 -0.010000
vertex -0.500000 0.050000 0.010000
vertex -0.500000 0.047727 0.010000
endloop
endfacet
facet normal 1.000000 0.000000 0.000000
outer loop
vertex -0.500000 -0.027273 -0.010000
vertex -0.500000 -0.025000 -0.010000
vertex -0.500000 -0.025000 0.010000
endloop
endfacet
facet normal 1.000000 0.000000 0.000000
outer loop
vertex -0.500000 -0.027273 -0.010000
vertex -0.500000 -0.025000 0.010000
vertex -0.500000 -0.027273 0.010000
endloop
endfacet
facet normal 1.000000 0.000000 0.000000
outer loop
vertex -0.500000 0.009091 -0.010000
vertex -0.500000 0.011364 -0.010000
vertex -0.500000 0.011364 0.010000
endloop
endfacet
facet normal 1.000000 0.000000 0.000000
outer loop
vertex -0.500000 0.009091 -0.010000
vertex -0.500000 0.011364 0.010000
vertex -0.500000 0.009091 0.010000
endloop
endfacet
facet normal 1.000000 0.000000 0.000000
outer loop
vertex -0.500000 0.043182 -0.010000
vertex -0.500000 0.045455 -0.010000
vertex -0.500000 0.045455 0.010000
endloop
endfacet
facet normal 1.000000 0.000000 0.000000
outer loop
vertex -0.500000 0.043182 -0.010000
vertex -0.500000 0.045455 0.010000
vertex -0.500000 0.043182 0.010000
endloop
endfacet
facet normal 1.000000 0.000000 0.000000
outer loop
vertex -0.500000 -0.036364 -0.010000
vertex -0.500000 -0.034091 -0.010000
vertex -0.500000 -0.034091 0.010000
endloop
endfacet
facet normal 1.000000 0.000000 0.000000
outer loop
vertex -0.500000 -0.036364 -0.010000
vertex -0.500000 -0.034091 0.010000
vertex -0.500000 -0.036364 0.010000
endloop
endfacet
facet normal 1.000000 0.000000 0.000000
outer loop
vertex -0.500000 0.036364 -0.010000
vertex -0.500000 0.038636 -0.010000
vertex -0.500000 0.038636 0.010000
endloop
endfacet
facet normal 1.000000 0.000000 0.000000
outer loop
vertex -0.500000 0.036364 -0.010000
vertex -0.500000 0.038636 0.010000
vertex -0.500000 0.036364 0.010000
endloop
endfacet
facet normal 1.000000 0.000000 0.000000
outer loop
vertex -0.500000 0.002273 -0.010000
vertex -0.500000 0.004545 -0.010000
vertex -0.500000 0.004545 0.010000
endloop
endfacet
facet normal 1.000000 0.000000 0.000000
outer loop
vertex -0.500000 0.002273 -0.010000
vertex -0.500000 0.004545 0.010000
vertex -0.500000 0.002273 0.010000
endloop
endfacet
facet normal 1.000000 0.000000 0.000000
outer loop
vertex -0.500000 -0.043182 -0.010000
vertex -0.500000 -0.040909 -0.010000
vertex -0.500000 -0.040909 0.010000
endloop
endfacet
facet normal 1.000000 0.000000 0.000000
outer loop
vertex -0.500000 -0.043182 -0.010000
vertex -0.500000 -0.040909 0.010000
vertex -0.500000 -0.043182 0.010000
endloop
endfacet
facet normal 1.000000 0.000000 0.000000
outer loop
vertex -0.500000 0.027273 -0.010000
vertex -0.500000 0.029545 -0.010000
vertex -0.500000 0.029545 0.010000
endloop
endfacet
facet normal 1.000000 0.000000 0.000000
outer loop
vertex -0.500000 0.027273 -0.010000
vertex -0.500000 0.029545 0.010000
vertex -0.500000 0.027273 0.010000
endloop
endfacet
facet normal 1.000000 0.000000 0.000000
outer loop
vertex -0.500000 0.011364 -0.010000
vertex -0.500000 0.013636 -0.010000
vertex -0.500000 0.013636 0.010000
endloop
endfacet
facet normal 1.000000 0.000000 0.000000
outer loop
vertex -0.500000 0.011364 -0.010000
vertex -0.500000 0.013636 0.010000
vertex -0.500000 0.011364 0.010000
endloop
endfacet
facet normal 1.000000 0.000000 0.000000
outer loop
vertex -0.500000 -0.002273 -0.010000
vertex -0.500000 0.000000 -0.010000
vertex -0.500000 0.000000 0.010000
endloop
endfacet
facet normal 1.000000 0.000000 0.000000
outer loop
vertex -0.500000 -0.002273 -0.010000
vertex -0.500000 0.000000 0.010000
vertex -0.500000 -0.002273 0.010000
endloop
endfacet
facet normal 1.000000 0.000000 0.000000
outer loop
vertex -0.500000 0.004545 -0.010000
vertex -0.500000 0.006818 -0.010000
vertex -0.500000 0.006818 0.010000
endloop
endfacet
facet normal 1.000000 0.000000 0.000000
outer loop
vertex -0.500000 0.004545 -0.010000
vertex -0.500000 0.006818 0.010000
vertex -0.500000 0.004545 0.010000
endloop
endfacet
facet normal 1.000000 0.000000 0.000000
outer loop
vertex -0.500000 0.020455 -0.010000
vertex -0.500000 0.022727 -0.010000
vertex -0.500000 0.022727 0.010000
endloop
endfacet
facet normal 1.000000 0.000000 0.000000
outer loop
vertex -0.500000 0.020455 -0.010000
vertex -0.500000 0.022727 0.010000
vertex -0.500000 0.020455 0.010000
endloop
endfacet
facet normal 1.000000 0.000000 0.000000
outer loop
vertex -0.500000 -0.020455 -0.010000
vertex -0.500000 -0.018182 -0.010000
vertex -0.500000 -0.018182 0.010000
endloop
endfacet
facet normal 1.000000 0.000000 0.000000
outer loop
vertex -0.500000 -0.020455 -0.010000
vertex -0.500000 -0.018182 0.010000
vertex -0.500000 -0.020455 0.010000
endloop
endfacet
facet normal 1.000000 0.000000 0.000000
outer loop
vertex -0.500000 0.022727 -0.010000
vertex -0.500000 0.025000 -0.010000
vertex -0.500000 0.025000 0.010000
endloop
endfacet
facet normal 1.000000 0.000000 0.000000
outer loop
vertex -0.500000 0.022727 -0.010000
vertex -0.500000 0.025000 0.010000
vertex -0.500000 0.022727 0.010000
endloop
endfacet
facet normal 1.000000 0.000000 0.000000
outer loop
vertex -0.500000 -0.050000 -0.010000
vertex -0.500000 -0.047727 -0.010000
vertex -0.500000 -0.047727 0.010000
endloop
endfacet
facet normal 1.000000 0.000000 0.000000
outer loop
vertex -0.500000 -0.050000 -0.010000
vertex -0.500000 -0.047727 0.010000
vertex -0.500000 -0.050000 0.010000
endloop
endfacet
facet normal 1.000000 0.000000 0.000000
outer loop
vertex -0.500000 0.029545 -0.010000
vertex -0.500000 0.031818 -0.010000
vertex -0.500000 0.031818 0.010000
endloop
endfacet
facet normal 1.000000 0.000000 0.000000
outer loop
vertex -0.500000 0.029545 -0.010000
vertex -0.500000 0.031818 0.010000
vertex -0.500000 0.029545 0.010000
endloop
endfacet
facet normal 1.000000 0.000000 0.000000
outer loop
vertex -0.500000 -0.011364 -0.010000
vertex -0.500000 -0.009091 -0.010000
vertex -0.500000 -0.009091 0.010000
endloop
endfacet
facet normal 1.000000 0.000000 0.000000
outer loop
vertex -0.500000 -0.011364 -0.010000
vertex -0.500000 -0.009091 0.010000
vertex -0.500000 -0.011364 0.010000
endloop
endfacet
facet normal 1.000000 0.000000 0.000000
outer loop
vertex -0.500000 0.013636 -0.010000
vertex -0.500000 0.015909 -0.010000
vertex -0.500000 0.015909 0.010000
endloop
endfacet
facet normal 1.000000 0.000000 0.000000
outer loop
vertex -0.500000 0.013636 -0.010000
vertex -0.500000 0.015909 0.010000
vertex -0.500000 0.013636 0.010000
endloop
endfacet
facet normal 1.000000 0.000000 0.000000
outer loop
vertex -0.500000 -0.045455 -0.010000
vertex -0.500000 -0.043182 -0.010000
vertex -0.500000 -0.043182 0.010000
endloop
endfacet
facet normal 1.000000 0.000000 0.000000
outer loop
vertex -0.500000 -0.045455 -0.010000
vertex -0.500000 -0.043182 0.010000
vertex -0.500000 -0.045455 0.010000
endloop
endfacet
facet normal 1.000000 0.000000 0.000000
outer loop
vertex -0.500000 0.038636 -0.010000
vertex -0.500000 0.040909 -0.010000
vertex -0.500000 0.040909 0.010000
endloop
endfacet
facet normal 1.000000 0.000000 0.000000
outer loop
vertex -0.500000 0.038636 -0.010000
vertex -0.500000 0.040909 0.010000
vertex -0.500000 0.038636 0.010000
endloop
endfacet
facet normal 1.000000 0.000000 0.000000
outer loop
vertex -0.500000 -0.038636 -0.010000
vertex -0.500000 -0.036364 -0.010000
vertex -0.500000 -0.036364 0.010000
endloop
endfacet
facet normal 1.000000 0.000000 0.000000
outer loop
vertex -0.500000 -0.038636 -0.010000
vertex -0.500000 -0.036364 0.010000
vertex -0.500000 -0.038636 0.010000
endloop
endfacet
facet normal 1.000000 0.000000 0.000000
outer loop
vertex -0.500000 0.031818 -0.010000
vertex -0.500000 0.034091 -0.010000
vertex -0.500000 0.034091 0.010000
endloop
endfacet
facet normal 1.000000 0.000000 0.000000
outer loop
vertex -0.500000 0.031818 -0.010000
vertex -0.500000 0.034091 0.010000
vertex -0.500000 0.031818 0.010000
endloop
endfacet
facet normal 1.000000 0.000000 0.000000
outer loop
vertex -0.500000 -0.004545 -0.010000
vertex -0.500000 -0.002273 -0.010000
vertex -0.500000 -0.002273 0.010000
endloop
endfacet
facet normal 1.000000 0.000000 0.000000
outer loop
vertex -0.500000 -0.004545 -0.010000
vertex -0.500000 -0.002273 0.010000
vertex -0.500000 -0.004545 0.010000
endloop
endfacet
facet normal 1.000000 0.000000 0.000000
outer loop
vertex -0.500000 0.006818 -0.010000
vertex -0.500000 0.009091 -0.010000
vertex -0.500000 0.009091 0.010000
endloop
endfacet
facet normal 1.000000 0.000000 0.000000
outer loop
vertex -0.500000 0.006818 -0.010000
vertex -0.500000 0.009091 0.010000
vertex -0.500000 0.006818 0.010000
endloop
endfacet
facet normal 1.000000 0.000000 0.000000
outer loop
vertex -0.500000 -0.029545 -0.010000
vertex -0.500000 -0.027273 -0.010000
vertex -0.500000 -0.027273 0.010000
endloop
endfacet
facet normal 1.000000 0.000000 0.000000
outer loop
vertex -0.500000 -0.029545 -0.010000
vertex -0.500000 -0.027273 0.010000
vertex -0.500000 -0.029545 0.010000
endloop
endfacet
facet normal 1.000000 0.000000 0.000000
outer loop
vertex -0.500000 0.045455 -0.010000
vertex -0.500000 0.047727 -0.010000
vertex -0.500000 0.047727 0.010000
endloop
endfacet
facet normal 1.000000 0.000000 0.000000
outer loop
vertex -0.500000 0.045455 -0.010000
vertex -0.500000 0.047727 0.010000
vertex -0.500000 0.045455 0.010000
endloop
endfacet
facet normal 1.000000 0.000000 0.000000
outer loop
vertex -0.500000 -0.013636 -0.010000
vertex -0.500000 -0.011364 -0.010000
vertex -0.500000 -0.011364 0.010000
endloop
endfacet
facet normal 1.000000 0.000000 0.000000
outer loop
vertex -0.500000 -0.013636 -0.010000
vertex -0.500000 -0.011364 0.010000
vertex -0.500000 -0.013636 0.010000
endloop
endfacet
facet normal 1.000000 0.000000 0.000000
outer loop
vertex -0.500000 0.015909 -0.010000
vertex -0.500000 0.018182 -0.010000
vertex -0.500000 0.018182 0.010000
endloop
endfacet
facet normal 1.000000 0.000000 0.000000
outer loop
vertex -0.500000 0.015909 -0.010000
vertex -0.500000 0.018182 0.010000
vertex -0.500000 0.015909 0.010000
endloop
endfacet
facet normal 1.000000 0.000000 0.000000
outer loop
vertex -0.500000 -0.006818 -0.010000
vertex -0.500000 -0.004545 -0.010000
vertex -0.500000 -0.004545 0.010000
endloop
endfacet
facet normal 1.000000 0.000000 0.000000
outer loop
vertex -0.500000 -0.006818 -0.010000
vertex -0.500000 -0.004545 0.010000
vertex -0.500000 -0.006818 0.010000
endloop
endfacet
facet normal 1.000000 0.000000 0.000000
outer loop
vertex -0.500000 -0.022727 -0.010000
vertex -0.500000 -0.020455 -0.010000
vertex -0.500000 -0.020455 0.010000
endloop
endfacet
facet normal 1.000000 0.000000 0.000000
outer loop
vertex -0.500000 -0.022727 -0.010000
vertex -0.500000 -0.020455 0.010000
vertex -0.500000 -0.022727 0.010000
endloop
endfacet
facet normal 1.000000 0.000000 0.000000
outer loop
vertex -0.500000 0.025000 -0.010000
vertex -0.500000 0.027273 -0.010000
vertex -0.500000 0.027273 0.010000
endloop
endfacet
facet normal 1.000000 0.000000 0.000000
outer loop
vertex -0.500000 0.025000 -0.010000
vertex -0.500000 0.027273 0.010000
vertex -0.500000 0.025000 0.010000
endloop
endfacet
facet normal 1.000000 0.000000 0.000000
outer loop
vertex -0.500000 -0.025000 -0.010000
vertex -0.500000 -0.022727 -0.010000
vertex -0.500000 -0.022727 0.010000
endloop
endfacet
facet normal 1.000000 0.000000 0.000000
outer loop
vertex -0.500000 -0.025000 -0.010000
vertex -0.500000 -0.022727 0.010000
vertex -0.500000 -0.025000 0.010000
endloop
endfacet
facet normal 1.000000 0.000000 0.000000
outer loop
vertex -0.500000 -0.031818 -0.010000
vertex -0.500000 -0.029545 -0.010000
vertex -0.500000 -0.029545 0.010000
endloop
endfacet
facet normal 1.000000 0.000000 0.000000
outer loop
vertex -0.500000 -0.031818 -0.010000
vertex -0.500000 -0.029545 0.010000
vertex -0.500000 -0.031818 0.010000
endloop
endfacet
facet normal 1.000000 0.000000 0.000000
outer loop
vertex -0.500000 0.034091 -0.010000
vertex -0.500000 0.036364 -0.010000
vertex -0.500000 0.036364 0.010000
endloop
endfacet
facet normal 1.000000 0.000000 0.000000
outer loop
vertex -0.500000 0.034091 -0.010000
vertex -0.500000 0.036364 0.010000
vertex -0.500000 0.034091 0.010000
endloop
endfacet
facet normal 1.000000 0.000000 0.000000
outer loop
vertex -0.500000 -0.015909 -0.010000
vertex -0.500000 -0.013636 -0.010000
vertex -0.500000 -0.013636 0.010000
endloop
endfacet
facet normal 1.000000 0.000000 0.000000
outer loop
vertex -0.500000 -0.015909 -0.010000
vertex -0.500000 -0.013636 0.010000
vertex -0.500000 -0.015909 0.010000
endloop
endfacet
facet normal 1.000000 0.000000 0.000000
outer loop
vertex -0.500000 -0.040909 -0.010000
vertex -0.500000 -0.038636 -0.010000
vertex -0.500000 -0.038636 0.010000
endloop
endfacet
facet normal 1.000000 0.000000 0.000000
outer loop
vertex -0.500000 -0.040909 -0.010000
vertex -0.500000 -0.038636 0.010000
vertex -0.500000 -0.040909 0.010000
endloop
endfacet
facet normal 1.000000 0.000000 0.000000
outer loop
vertex -0.500000 0.040909 -0.010000
vertex -0.500000 0.043182 -0.010000
vertex -0.500000 0.043182 0.010000
endloop
endfacet
facet normal 1.000000 0.000000 0.000000
outer loop
vertex -0.500000 0.040909 -0.010000
vertex -0.500000 0.043182 0.010000
vertex -0.500000 0.040909 0.010000
endloop
endfacet
facet normal 1.000000 0.000000 0.000000
outer loop
vertex -0.500000 -0.034091 -0.010000
vertex -0.500000 -0.031818 -0.010000
vertex -0.500000 -0.031818 0.010000
endloop
endfacet
facet normal 1.000000 0.000000 0.000000
outer loop
vertex -0.500000 -0.034091 -0.010000
vertex -0.500000 -0.031818 0.010000
vertex -0.500000 -0.034091 0.010000
endloop
endfacet
facet normal 1.000000 0.000000 0.000000
outer loop
vertex -0.500000 -0.009091 -0.010000
vertex -0.500000 -0.006818 -0.010000
vertex -0.500000 -0.006818 0.010000
endloop
endfacet
facet normal 1.000000 0.000000 0.000000
outer loop
vertex -0.500000 -0.009091 -0.010000
vertex -0.500000 -0.006818 0.010000
vertex -0.500000 -0.009091 0.010000
endloop
endfacet
facet normal 1.000000 0.000000 0.000000
outer loop
vertex -0.500000 0.000000 -0.010000
vertex -0.500000 0.002273 -0.010000
vertex -0.500000 0.002273 0.010000
endloop
endfacet
facet normal 1.000000 0.000000 0.000000
outer loop
vertex -0.500000 0.000000 -0.010000
vertex -0.500000 0.002273 0.010000
vertex -0.500000 0.000000 0.010000
endloop
endfacet
facet normal 1.000000 0.000000 0.000000
outer loop
vertex -0.500000 -0.047727 -0.010000
vertex -0.500000 -0.045455 -0.010000
vertex -0.500000 -0.045455 0.010000
endloop
endfacet
facet normal 1.000000 0.000000 0.000000
outer loop
vertex -0.500000 -0.047727 -0.010000
vertex -0.500000 -0.045455 0.010000
vertex -0.500000 -0.047727 0.010000
endloop
endfacet
facet normal 1.000000 0.000000 0.000000
outer loop
vertex -0.500000 -0.018182 -0.010000
vertex -0.500000 -0.015909 -0.010000
vertex -0.500000 -0.015909 0.010000
endloop
endfacet
facet normal 1.000000 0.000000 0.000000
outer loop
vertex -0.500000 -0.018182 -0.010000
vertex -0.500000 -0.015909 0.010000
vertex -0.500000 -0.018182 0.010000
endloop
endfacet
facet normal 1.000000 0.000000 0.000000
outer loop
vertex -0.500000 0.018182 -0.010000
vertex -0.500000 0.020455 -0.010000
vertex -0.500000 0.020455 0.010000
endloop
endfacet
facet normal 1.000000 0.000000 0.000000
outer loop
vertex -0.500000 0.018182 -0.010000
vertex -0.500000 0.020455 0.010000
vertex -0.500000 0.018182 0.010000
endloop
endfacet
endsolid inlet
